<?xml version="1.0" encoding="utf-8"?>
<!-- Generator: Adobe Illustrator 24.0.2, SVG Export Plug-In . SVG Version: 6.00 Build 0)  -->
<svg version="1.1" id="Vrstva_1" xmlns="http://www.w3.org/2000/svg" xmlns:xlink="http://www.w3.org/1999/xlink" x="0px" y="0px"
	 viewBox="0 0 1080 1080" style="enable-background:new 0 0 1080 1080;" xml:space="preserve">
<style type="text/css">
	.st0{fill:#041E42;}
	.st1{fill:#FFFFFF;}
	.st2{fill:#F64400;}
	.st3{fill-rule:evenodd;clip-rule:evenodd;fill:#041E42;}
	.st4{filter:url(#Adobe_OpacityMaskFilter);}
	.st5{mask:url(#SVGID_1_);fill-rule:evenodd;clip-rule:evenodd;fill:#FFFFFF;}
	.st6{fill-rule:evenodd;clip-rule:evenodd;fill:#FEFFFF;}
	.st7{fill-rule:evenodd;clip-rule:evenodd;fill:#BCBEC0;}
	.st8{fill:#F9F6F4;}
	.st9{clip-path:url(#SVGID_3_);}
	.st10{clip-path:url(#SVGID_5_);fill:#0D2576;}
	.st11{clip-path:url(#SVGID_5_);fill:#F64400;}
	.st12{fill-rule:evenodd;clip-rule:evenodd;fill:#FFFFFF;}
	.st13{filter:url(#Adobe_OpacityMaskFilter_1_);}
	.st14{mask:url(#SVGID_6_);}
	.st15{fill:#B3B3B3;}
</style>
<g>
	<g>
		<path class="st0" d="M532.66,908.66c-2.72-1.2-67.4-29.99-132.98-83.37c-88.57-72.1-135.38-154.68-135.38-238.8V317.65
			c0,0,114.92-49.21,275.25-49.21s275.25,49.21,275.25,49.21v268.84c0,84.12-46.81,166.7-135.38,238.8
			c-65.58,53.38-130.26,82.17-132.98,83.37l-6.89,3.04L532.66,908.66z"/>
	</g>
	<g>
		<path class="st0" d="M539.55,887.54c-11.4-5.28-69.12-33.08-126.1-79.52c-37.02-30.16-66.48-62.16-87.58-95.12
			c-26.2-40.92-39.48-83.46-39.48-126.41V338.97c17.24-7.38,110.93-44.41,253.17-44.41c142.24,0,235.93,37.03,253.17,44.41v247.52
			c0,42.96-13.28,85.49-39.48,126.41c-21.1,32.96-50.56,64.96-87.58,95.12C608.67,854.46,550.95,882.26,539.55,887.54z"/>
		<path class="st1" d="M539.55,299.56c81.44,0,146.12,12.28,186.05,22.59c31.19,8.05,52.53,16.18,62.12,20.13v244.21
			c0,41.95-13,83.54-38.63,123.62c-20.78,32.49-49.86,64.08-86.42,93.89c-53.7,43.79-108.12,70.92-123.12,78.01
			c-15-7.1-69.42-34.22-123.12-78.01c-36.56-29.81-65.63-61.4-86.42-93.89c-25.63-40.07-38.63-81.67-38.63-123.62V342.28
			c9.59-3.96,30.94-12.09,62.12-20.13C425.84,303.48,494.6,299.56,539.55,299.56 M539.55,289.56
			c-160.31,0-258.17,46.15-258.17,46.15s0,207.52,0,250.78c0,192.75,258.17,306.54,258.17,306.54s258.17-113.79,258.17-306.54
			c0-42.15,0-250.78,0-250.78S699.86,289.56,539.55,289.56L539.55,289.56z"/>
	</g>
	<g>
		<path class="st2" d="M286.39,513.17V328.68c18.32-6,111.8-34.12,253.17-34.12c141.36,0,234.85,28.12,253.17,34.12v184.49H286.39z"
			/>
		<path class="st1" d="M539.55,299.56c81.72,0,146.62,9.5,186.68,17.46c30.41,6.05,51.5,12.15,61.48,15.3v175.85H291.39V332.32
			c9.99-3.15,31.07-9.25,61.48-15.3C425.45,302.59,494.45,299.56,539.55,299.56 M539.55,289.56c-160.31,0-258.17,35.53-258.17,35.53
			v193.08h516.33V325.09C797.72,325.09,699.86,289.56,539.55,289.56L539.55,289.56z"/>
	</g>
	<rect x="557.28" y="373.17" class="st1" width="49" height="65"/>
	<g>
		<path class="st0" d="M598.94,465.17c-2.21,0-4-1.79-4-4l0.01-56.83c-0.13-0.15-0.27-0.32-0.39-0.5l-10.53-15.1
			c0,0-10,15.05-10,15.06l-0.01,57.38c0,1.06-0.42,2.08-1.17,2.83s-1.77,1.17-2.83,1.17H317.67c-2.21,0-4-1.79-4-4v-91.61
			c0-2.21,1.79-4,4-4h0.82v-1.94c-0.98-0.73-1.61-1.9-1.61-3.21v-0.57c0-2.21,1.79-4,4-4c0.21,0,0.42,0.02,0.62,0.05
			c-0.02-5.91-0.08-12.76-0.18-18.94c-0.03-1.8,0.25-4.43,2.96-6.43c1.03-0.76,1.95-1.59,2.93-2.46c0.36-0.33,0.73-0.66,1.11-0.99
			c1.89-20.49,12.89-34.31,31.95-40.18v-7.67c-0.98-0.73-1.61-1.9-1.61-3.21v-2.67c0-1.95,1.41-3.61,3.32-3.94
			c0.68-4.18,3.25-7.23,7.33-8.68c0.36-0.13,0.72-0.25,1.08-0.37c0.1-0.77,0.18-1.55,0.27-2.36c0.18-1.63,0.36-3.32,0.65-5.05
			c0.33-1.95,2.02-3.33,3.94-3.33c0.17,0,0.35,0.01,0.52,0.03l1.73,0.22c1.85,0.24,3.28,1.72,3.46,3.57
			c0.15,1.55,0.35,3.02,0.59,4.75c0.09,0.66,0.12,1.29,0.15,1.83c0,0.1,0.01,0.2,0.01,0.29c4.28,1.43,7.14,4.44,8.16,8.55
			c0.06,0,0.12,0,0.17,0c2.18,0.04,3.93,1.82,3.93,4v3.41c0,2.16-1.71,3.93-3.87,4c-0.14,0-0.28,0.01-0.4,0.01
			c-0.01,1.3-0.03,6.87-0.03,6.91c5.31,1.75,9.89,3.98,13.98,6.79c8.45,5.8,14.13,13.64,16.89,23.3c1.09,3.8,1.72,7.64,1.9,11.41
			c1.86,0.31,3.39,1.31,4.48,2.93c1.64,2.46,1.63,5.3,0.01,7.48c0,0.03,0,0.06,0,0.09c0.02,1.87,0.03,3.74,0.03,5.61
			c0,0.91,0,1.81,0.01,2.72c1.85,0.36,3.21,1.97,3.24,3.87c0.01,0.79-0.01,1.59-0.04,2.39c-0.02,0.63-0.04,1.25-0.04,1.88
			c0,0.43-0.01,0.86-0.04,1.27c0.71-0.63,1.64-1.02,2.67-1.02h4.17c0.25,0,0.49,0.02,0.72,0.06c0.23-0.15,0.47-0.27,0.73-0.37
			c1.64-0.62,2.28-1.13,3.17-1.84c0.39-0.31,0.83-0.66,1.35-1.03c-1.35-2.58-0.45-5.4-0.14-6.37c1.08-3.37,3.23-5.7,6.11-6.73
			c-0.09-0.64-0.17-1.39-0.15-2.19c0.02-0.84,0.02-1.7,0-2.59c-1.02-0.73-1.67-1.92-1.67-3.26v-2.14c0-1.23,0.56-2.35,1.45-3.08
			c0.01-0.08,0.02-0.17,0.03-0.25c0.09-0.75,0.18-1.51,0.25-2.25c0.09-0.98,0.54-1.89,1.25-2.55c-0.31-0.56-0.54-1.2-0.6-1.96
			c-0.16-2.11,1.09-3.53,1.99-4.49c0.15-1.02,0.28-2.04,0.41-3.12c0.1-0.83,0.2-1.67,0.32-2.5c0.38-2.73,0.8-5.65,1.53-8.66
			c0.4-1.69,1.84-2.92,3.57-3.06c0.11-0.01,0.21-0.01,0.32-0.01c1.6,0,3.07,0.96,3.69,2.46c0.16,0.32,0.49,0.99,0.59,1.87
			c0.29,2.46,0.56,4.93,0.83,7.4l0.33,3.02c0.06,0.5,0.11,1.01,0.15,1.52c0,0,0.12,1.22,0.14,1.37c0.92,0.83,1.5,1.93,1.64,3.14
			c0.1,0.91-0.01,2.24-0.99,3.7c0.41,0.64,0.72,1.45,0.72,2.46v1.03c1.85,0.37,3.21,2,3.21,3.92v2.27c0,1.63-0.98,3.04-2.39,3.66
			c-0.1,1.4-0.17,3.21-0.18,4.8c0.7,0.28,1.42,0.66,2.13,1.2c2.13,1.62,3.5,3.57,4.19,5.95c0.39,1.36,0.42,2.68,0.12,3.88
			c0.05,0,0.11,0,0.16,0c0.12,0,0.24,0.01,0.35,0.02c0.11-0.13,0.23-0.27,0.36-0.41c2.71-2.81,5.44-5.61,8.17-8.41
			c2.09-2.14,4.17-4.29,6.25-6.43c0.76-0.78,1.51-1.58,2.25-2.37c0.99-1.06,1.99-2.11,3.01-3.15c-0.02-1.62,0-3.29,0.07-4.98
			c0.08-1.95,0.46-3.62,1.2-5.24c0.52-1.13,1.54-1.96,2.75-2.24c0.29-0.07,0.59-0.1,0.89-0.1c0.93,0,1.83,0.32,2.56,0.93
			c2.26,1.88,2.51,4.31,2.63,5.48c0.01,0.13,0.03,0.27,0.04,0.4c0.28,1.95,0.35,3.85,0.42,5.7c2.49,2.57,4.96,5.15,7.42,7.74
			c0,0,0.52,0.55,0.54,0.57c0-0.2-0.01-0.41-0.01-0.61c-0.02-1.28-0.02-2.56-0.01-3.83c-0.89-0.59-1.51-1.34-2.21-2.71
			c-0.62-1.2-0.59-2.63,0.08-3.8c1.1-1.94,2.72-2.74,4.14-3.07c0.18-0.52,0.38-1.06,0.6-1.6c0.58-1.38,0.82-2.86,0.75-4.52
			c-0.1-2.34-0.05-4.59,0.01-6.49c0.07-2.4,0.2-4.81,0.32-7.15l0.08-1.55c0.04-0.88,0.34-1.54,0.5-1.89
			c0.03-0.06,0.06-0.12,0.09-0.21c0.56-1.44,1.89-2.43,3.43-2.55c0.04,0,0.08-0.01,0.12-0.01c-0.95-0.53-1.67-1.43-1.94-2.54
			c-0.24-0.99-0.89-3.6,0.66-5.84c0.65-0.93,1.48-1.55,2.39-1.97c0-0.89,0-1.78-0.01-2.67c-0.01-2.58-0.02-5.24,0.02-7.88
			c0.05-3.43,0.13-7.43,0.4-11.45c0.14-2.17,0.39-4.31,0.63-6.39c0.14-1.2,0.28-2.4,0.39-3.6c0.12-1.26,0.21-2.53,0.3-3.8
			c0.04-0.64,0.09-1.27,0.14-1.91c0.05-0.64,0.15-1.96,1.1-3.38c0.65-0.97,1.68-1.59,2.81-1.74c-0.03-3.42,0.15-6.46,0.55-9.3
			c0.22-1.6,0.37-3.23,0.53-4.95c0.1-1.06,0.19-2.12,0.31-3.16c0.24-2.25,0.53-4.58,0.81-6.83c0.18-1.51,1.2-2.58,1.8-3.07
			c0.73-0.61,1.64-0.93,2.57-0.93c0.49,0,0.98,0.09,1.44,0.27c1.14,0.44,2,1.37,2.37,2.51c0.12-2.07,0.19-4.19,0.26-6.24
			c0.03-0.95,0.06-1.91,0.1-2.86c-0.02-0.4-0.01-1.2,0.4-2.08c0.27-0.57,0.32-1.47,0.38-2.5c0.05-0.76,0.1-1.62,0.25-2.52
			c0.04-0.26,0.07-0.58,0.09-0.89l0.29-4.74c0.17-2.79,0.34-5.58,0.53-8.37c0.22-3.3,0.47-6.72,0.75-10.15
			c0.11-1.38,0.35-2.72,0.74-4.09c0.49-1.74,2.07-2.92,3.85-2.92c0.12,0,0.23,0,0.35,0.02c1.92,0.17,3.44,1.68,3.63,3.59l0.05,0.51
			c0.03,0.34,0.06,0.68,0.1,1.01c0.02,0.16,0.05,0.32,0.08,0.48c0.07,0.39,0.16,0.87,0.19,1.41c0.14,2.02,0.27,4.04,0.38,6.06
			c0.06,1.24,0.12,2.48,0.17,3.72c0.08,1.81,0.16,3.62,0.27,5.43c0.11,1.82,0.26,3.63,0.4,5.45c0.09,1.16,0.18,2.31,0.27,3.47
			c0.04,0.55,0.05,1.1,0.05,1.65l0.01,0.61c0.02,1.02,0.11,1.63,0.31,2.19c0.67,1.83,0.72,3.67,0.76,5.15
			c0.07,2.46,0.08,4.93,0.09,7.33l0.01,1.25l0.15-1.19c0.22-1.75,1.55-3.15,3.29-3.45c0.23-0.04,0.45-0.06,0.68-0.06
			c1.5,0,2.89,0.84,3.58,2.21c0.07,0.13,0.12,0.24,0.17,0.32c0.22,0.4,0.6,1.06,0.71,2.01c0.13,1.13,0.25,2.25,0.37,3.38
			c0.14,1.29,0.27,2.58,0.42,3.86c0.13,1.11,0.28,2.22,0.42,3.33c0.22,1.65,0.44,3.36,0.62,5.07c0.27,2.68,0.41,4.75,0.42,6.73
			c0,0.22,0,0.44,0.01,0.66c1.33,0.14,2.53,0.94,3.15,2.18c0.07,0.13,0.13,0.24,0.18,0.33c0.23,0.41,0.62,1.09,0.75,2.04l0.04,0.27
			c0.39,3.01,0.8,6.12,0.83,9.35c0.03,3.52,0.09,6.97,0.38,10.39c0.37,4.38,0.34,8.75,0.31,12.97c-0.02,1.98-0.03,4.02,0,6.03
			c0.87,0.5,1.72,1.24,2.37,2.37c0.43,0.75,1.74,3.02,0.48,5.92c-0.59,1.36-1.88,2.28-3.35,2.4c-0.06,0-0.12,0.01-0.18,0.02
			c-0.39,0.64-0.96,1.17-1.66,1.5c-0.22,0.11-0.43,0.24-0.66,0.37c-0.24,0.14-0.48,0.28-0.72,0.41c0,0,0.12,12.47,0.14,14.64
			c0.23-0.13,0.47-0.24,0.71-0.34v-6.3c0-0.38,0-1.08,0.33-1.88c0.51-1.26,1.59-2.16,2.89-2.48v-2.8c0-2.15,1.69-3.91,3.83-4
			c0.44-0.02,0.75-0.03,0.99-0.03v-1.84c0-1.9,1.33-3.5,3.11-3.9c0-0.28,0-0.55,0-0.83c0-0.56,0.02-1.42,0.23-2.34
			c0.06-0.28,0.15-0.55,0.26-0.8c-0.02-0.02-0.03-0.04-0.05-0.06c-0.28-0.1-0.58-0.23-0.87-0.39c-1.32-0.75-2.78-2.28-2.9-4.33
			c-0.14-2.53,1.77-4.16,2.36-4.6c0.42-0.31,0.84-0.52,1.24-0.67c0.74-0.9,1.65-1.6,2.68-2.05c0.48-1.77,1.63-3.81,4.59-4.7
			c0.38-0.11,0.77-0.17,1.16-0.17c0.34,0,0.68,0.04,1.01,0.13c3.12,0.81,4.26,2.96,4.71,4.81c0.99,0.4,2.02,1.05,2.76,2.13
			c0.45,0.16,0.92,0.35,1.4,0.62c1.61,0.9,2.59,2.56,2.55,4.33c-0.04,1.78-1.09,3.4-2.75,4.23c-0.36,0.18-0.71,0.32-1.04,0.44
			c0.19,0.44,0.31,0.92,0.33,1.43c0.04,0.93,0.08,1.86,0.11,2.79c0.63,0.02,1.25,0.2,1.81,0.51c1.01,0.57,1.73,1.55,1.96,2.69
			c0.14,0.68,0.16,1.59-0.26,2.57c1.43,0.32,2.61,1.4,3,2.87c0.15,0.4,0.39,1.07,0.39,1.93c0,0.71,0.01,1.43,0.01,2.14
			c0.01,0,0.02,0,0.03,0c2.08,0,3.84,1.61,3.99,3.72c0.07,1.04-0.18,1.88-0.4,2.42c0,0.69,0,1.37,0,2.05c0,0.82,0,1.64,0.01,2.47
			c0.22,0.01,0.43,0.04,0.64,0.08c-0.02-6.32-0.06-12.03-0.13-14.94l-1.51-0.89c-0.5-0.29-0.92-0.69-1.25-1.15l-0.19-0.01
			c-1.81-0.08-3.34-1.37-3.73-3.14c-1.02-4.64,0.97-6.62,3.41-7.8c0-1.66,0-3.33-0.01-5c-0.01-4.33-0.02-8.81,0.06-13.23
			c0.04-2.08,0.23-4.1,0.43-6.06c0.09-0.92,0.18-1.84,0.25-2.77c0.1-1.33,0.2-2.66,0.29-3.98l0.12-1.78
			c0.14-1.97,0.29-4.01,0.6-6.09c0.28-1.82,1.75-3.2,3.55-3.38c0.3-7.85,1.23-15.68,2.81-23.67c0.37-1.88,2.02-3.23,3.92-3.23
			c0.03,0,0.05,0,0.08,0c1.91,0.04,3.52,1.42,3.86,3.29c0.09-1.13,0.14-2.29,0.2-3.48l0.12-2.52c0.08-1.79,0.17-3.65,0.38-5.53
			c0.12-1.11,0.42-2.06,0.68-2.89c0.09-0.3,0.19-0.6,0.27-0.9c0.05-0.21,0.06-0.3,0.06-0.3c0.06-1.23,0.11-2.47,0.16-3.7
			c0.09-2.15,0.18-4.31,0.3-6.46c0.12-2.05,0.27-4.1,0.43-6.15c0.07-0.96,0.15-1.92,0.22-2.88c0.01-0.19,0.02-0.39,0.03-0.58
			l0.08-1.91c0.12-2.64,0.24-5.27,0.37-7.91c0.04-0.79,0.28-1.38,0.41-1.7c0.03-0.06,0.06-0.14,0.09-0.24
			c0.56-1.56,2.01-2.61,3.66-2.65c0.04,0,0.07,0,0.11,0c1.61,0,3.07,0.97,3.69,2.46c0.04,0.1,0.08,0.19,0.12,0.27
			c0.16,0.34,0.4,0.86,0.51,1.55c0.09,0.58,0.08,1.05,0.07,1.33l0,0.11l0.72,12.85l0.14,3.55c0.1,2.52,0.2,5.03,0.32,7.55
			c0.06,1.33,0.15,2.67,0.24,4l0.1,1.58c0.87,2.38,0.9,4.66,0.92,6.69c0.01,0.9,0.02,1.76,0.1,2.52c0.21,1.84,0.26,3.65,0.32,5.4
			c0,0.02,0,0.05,0,0.07v0c0.27-1.7,1.6-3.05,3.3-3.33c0.22-0.04,0.44-0.05,0.66-0.05c1.47,0,2.84,0.81,3.54,2.14
			c0.06,0.12,0.11,0.2,0.15,0.27c0.21,0.35,0.59,1,0.71,1.93c0.38,2.86,0.76,5.71,1.1,8.57c0.16,1.31,0.3,2.62,0.44,3.93
			c0.13,1.17,0.25,2.34,0.39,3.51c0.23,1.93,0.35,3.84,0.4,5.74c1.3,0.17,2.47,0.97,3.08,2.2c0.08,0.17,0.16,0.3,0.22,0.41
			c0.23,0.42,0.58,1.06,0.72,1.93c0.1,0.6,0.08,1.14,0.07,1.49c0,0.07,0,0.14,0,0.21c0.17,2.6,0.34,5.22,0.52,7.84l0.22,3.37
			c0.05,0.86,0.1,1.69,0.15,2.52c0.11,1.85,0.23,3.76,0.27,5.68c0.11,4.43,0.18,8.87,0.26,13.31l0.07,4.01
			c1.02,0.46,2.09,1.26,2.8,2.67c0.62,1.22,0.66,2.43,0.7,3.23c0.01,0.18,0.01,0.37,0.03,0.55c0.12,1.08-0.2,2.17-0.89,3.01
			c-0.69,0.84-1.7,1.36-2.79,1.44l-0.5,0.04c-0.36,0.61-0.87,1.12-1.5,1.46l-0.38,0.21c-0.38,0.21-0.76,0.42-1.15,0.65
			c0.03,5.48,0.08,10.96,0.12,16.44c0.05,6.01,0.1,12.03,0.13,18.04c0,0,0.01,0.43,0.01,0.48v8.93l0.11-0.35
			c0.53-1.65,2.07-2.78,3.8-2.78c0,0,0,0,0.01,0c1.73,0,3.27,1.12,3.8,2.77l4.75,14.65l1.38,4.6h3.86v-28.36
			c0-0.26-0.01-0.52-0.02-0.79c-0.01-0.34-0.02-0.69-0.02-1.04s0.01-0.7,0.02-1.04c0.01-0.27,0.02-0.53,0.02-0.79v-2.55
			c0-0.67,0.16-1.3,0.45-1.85c0.4-4.41,1.14-9.54,4.37-12.12v-8.53c0-2.21,1.79-4,4-4h1.61c2.21,0,4,1.79,4,4v9.24
			c2.58,3.26,3.47,9.18,3.78,12.93c0.07,0.84-0.13,1.68-0.56,2.39v0.46c0,0.26,0.01,0.53,0.02,0.8c0.01,0.35,0.02,0.7,0.02,1.05
			c0,0.35-0.01,0.71-0.02,1.05c-0.01,0.27-0.02,0.53-0.02,0.8v27.24l1-3.25l4.77-14.88c0.53-1.65,2.07-2.78,3.8-2.78c0,0,0,0,0.01,0
			c1.73,0,3.27,1.12,3.8,2.77l4.34,13.36V335.6c0-0.26-0.01-0.53-0.02-0.79c-0.01-0.35-0.02-0.7-0.02-1.06s0.01-0.71,0.02-1.06
			c0.01-0.27,0.02-0.53,0.02-0.79v-0.52c-0.41-0.7-0.59-1.51-0.52-2.33c0.37-4.52,1.34-9.92,3.74-12.94v-9.6c0-2.21,1.79-4,4-4
			s4,1.79,4,4v8.44c2.58,1.34,4.02,3.67,4.86,6.25c0.08-2.14,1.84-3.85,4-3.85h0.82v-39.4c0-2.21,1.79-4,4-4h3.21c2.21,0,4,1.79,4,4
			v12.87c0.98,0.73,1.61,1.89,1.61,3.21v5.79l6.57-10.99c0.72-1.21,2.03-1.95,3.43-1.95c0.01,0,0.03,0,0.04,0
			c1.42,0.01,2.73,0.78,3.43,2.01l9.29,16.24l6.91,12.23h0.08c2.21,0,4,1.79,4,4v139.83c0,2.21-1.79,4-4,4l-146.92,0L598.94,465.17z
			 M742.82,437.88v-17.72h-3.25v17.72H742.82z M712.28,437.88v-14.5h-3.25v14.5H712.28z M691.38,437.88v-14.5h-1.64v14.5H691.38z
			 M672.1,437.88v-14.5h-1.64v14.5H672.1z M652.81,437.88v-14.5h-1.64v14.5H652.81z M712.28,404.13v-14.5h-3.25v14.5H712.28z
			 M691.38,404.13v-14.5h-1.64v14.5H691.38z M672.1,404.13v-14.5h-1.64v14.5H672.1z M652.81,404.13v-14.5h-1.64v14.5H652.81z
			 M742.82,397.7v-16.11h-3.25v16.11H742.82z M713.88,363.95v-31.63c-0.01,0.01-0.02,0.02-0.03,0.03c0,0.13,0.01,0.25,0.01,0.38
			c0.01,0.34,0.02,0.68,0.02,1.03c0,0.34-0.01,0.69-0.02,1.03c-0.01,0.26-0.01,0.52-0.01,0.78L713.88,363.95z M742.82,359.13v-17.72
			h-3.25v17.72H742.82z M522.43,300.72c0.35,0.61,0.61,1.2,0.81,1.79c-0.01-0.55-0.01-1.04-0.02-1.47
			c-0.33-0.16-0.64-0.34-0.91-0.52C522.35,300.59,522.39,300.65,522.43,300.72z"/>
		<path class="st1" d="M624.6,176.3c0.19,0.46,0.34,0.68,0.38,0.93c0.05,0.31,0,0.63,0.02,0.94c0.24,4.3,0.48,8.61,0.72,12.91
			c0.01,0.13,0.01,0.25,0.01,0.38c0.15,3.56,0.28,7.13,0.45,10.69c0.09,1.93,0.23,3.87,0.36,5.8c0.01,0.19-0.01,0.39,0.06,0.56
			c1.2,2.8,0.65,5.8,0.97,8.7c0.33,2.98,0.25,6,0.49,8.99c0.1,1.28,0.6,2.53,0.81,3.81c0.4,2.46,0.7,4.93,1.06,7.4
			c0.06,0.43,0.07,0.92,0.29,1.26c1.03,1.6,1.04,3.41,1.23,5.2c0.11,1.05,0.31,2.08,0.5,3.25c0.28,0.02,0.55,0.04,0.94,0.06
			c0.03-0.66,0.12-1.21,0.08-1.75c-0.22-3.03,0.52-5.96,0.86-8.93c0.38-3.28,0.92-6.54,1.4-9.81c0.17-1.15,0.36-2.3,0.6-3.83
			c0.26,0.5,0.42,0.67,0.44,0.87c0.38,2.84,0.75,5.68,1.1,8.53c0.3,2.48,0.54,4.96,0.83,7.44c0.77,6.49,0.21,13.01,0.41,19.52
			c0.01,0.18-0.06,0.36-0.12,0.61c-0.39,0.11-0.79,0.22-1.32,0.37c-0.07,0.43-0.13,0.91-0.21,1.43c-0.14,0.07-0.26,0.17-0.43,0.22
			c-1.14,0.31-1.09,0.31-1.08,1.71c-0.37,0.11-1.14,0.22-1.14,0.35c0,5.64,0,11.26,0,17.08c0,0.04,0.75,0.06,1.76,0.06
			c1.3,0,3.02-0.03,4.14-0.05c0.14-0.44,0.21-0.73,0.21-1.01c0.01-2.01,0.14-4.03-0.07-6.01c-0.23-2.2,0.19-4.35,0.21-6.53
			c0.02-2.05,0.42-4.09,0.61-6.14c0.17-1.87,0.28-3.74,0.41-5.61c0.15-2.11,0.3-4.23,0.48-6.78c0.32,0.65,0.53,0.91,0.57,1.19
			c0.07,0.43,0,0.88,0.03,1.31c0.24,3.68,0.49,7.35,0.73,11.03c0,0.06,0.01,0.12,0.01,0.19c0.14,2.68,0.35,5.37,0.41,8.05
			c0.15,6.39,0.24,12.77,0.36,19.16c0.01,0.37,0.04,0.74,0.06,1.2c1.14,0.28,2.54,0.15,3.13,1.33c0.33,0.66,0.23,1.54,0.33,2.44
			c-1.2,0.09-2.16,0.16-3.17,0.24c-0.17,0.63-0.31,1.16-0.48,1.76c-0.56,0.31-1.16,0.63-1.74,0.98c-0.59,0.35-1.13,0.72-1.86,1.18
			c0.07,12.25,0.2,24.5,0.27,36.77l0.02,0.39v31.8h0.96l2.21-7.18l4.75-14.83l4.75,14.65l2.21,7.36h10.83v-32.36
			c0-0.6-0.03-1.21-0.03-1.83c0-0.62,0.03-1.23,0.03-1.83v-2.55h0.31c0.53-6.43,1.3-10.87,4.51-11.52v-10.98h1.61v10.98
			c1.61,0.65,3.26,5.09,3.79,11.52h-0.57v2.53c0,0.61,0.04,1.23,0.04,1.85c0,0.63-0.04,1.24-0.04,1.85v32.34h6.62l2.21-7.18
			l4.75-14.83l4.75,14.65l2.21,7.36h5.18v-32.34c0-0.61-0.04-1.22-0.04-1.85c0-0.63,0.04-1.24,0.04-1.85v-2.53h-0.54
			c0.53-6.43,2.15-10.87,3.75-11.52c4.82,0.65,5.63,5.09,6.15,11.52h-1.33v2.57c0,0.59,0.03,1.19,0.03,1.8
			c0,0.61-0.03,1.21-0.03,1.8v32.39h8.04v-46.61h4.82v-26.25v-17.15h3.21v16.07h1.61v20l4.44-7.15l9.56-16.01l9.29,16.24l8.05,14.25
			h2.42v139.83h-21.09h-21.07h-80c0,0-12.86,0-24.77,0c-5.95,0-11.67,0-15.42,0l0.01-58.3c0-0.46-0.84-0.92-1.1-1.31l-11.84-16.96
			c-0.47-0.72-1.25-1.07-2.03-1.07s-1.56,0.36-2.03,1.07l-11.27,16.96c-0.25,0.39-0.68,0.84-0.68,1.31l-0.01,58.3
			c-4.29,0-10.36,0-16.55,0c-12.38,0-25.24,0-25.24,0h-18.82l0,0h-45.69l0,0h-18.17l0,0h-45.69l0,0h-18.17l0,0h-45.69l0,0h-18.31
			v-42.5v-1.96v-47.16c0,0,3.21,0,4.82,0c0-1.61,0-4.88,0-7.12c1.61-0.1,1.11-0.18,1.75-0.27c-0.15-0.5-0.41-0.9-0.52-1.26
			c-1-0.17-1.23-0.32-2.84-0.49c0-0.27,0-0.42,0-0.5c1.61,0,2.9,0,4.64,0c0.03-3.21-0.02-2.54-0.02-3.21
			c-0.01-6.27-0.08-13.55-0.18-19.82c-0.02-1.41,0.22-2.33,1.34-3.15c2.06-1.52,3.65-3.18,5.52-4.68
			c1.41-21.18,12.81-34.24,32.1-39.13c0-4.56,0-9.05,0-13.66c0-0.09,0-0.17-1.61-0.26c0-0.93,0-1.78,0-2.67
			c1.61-0.22,1.95-0.42,2.91-0.64c0.05-0.63,0.22-1.18,0.26-1.74c0.22-3.19,1.78-5.4,4.82-6.47c1.1-0.39,2.24-0.73,3.34-1.09
			c0.57-3.28,0.71-6.51,1.27-9.79c0.68,0.09,1.2,0.15,1.73,0.22c0.17,1.71,0.38,3.32,0.61,4.91c0.22,1.59-0.05,3.27,0.83,4.87
			c4.97,0.82,7.99,3.75,7.86,9.09c0.97,0.06,0.48,0.11,3.69,0.16c0,1.15,0,2.2,0,3.41c-3.21,0.11-2.45,0.21-3.32,0.32
			c-0.03,0.67-0.93,1.28-0.93,1.89c-0.02,2.76-0.03,5.52-0.04,8.28c0,0.44,0.01,0.88-0.03,1.32c-0.19,1.95-0.21,1.98,1.73,2.58
			c4.98,1.56,9.71,3.66,14.02,6.63c7.6,5.22,12.77,12.2,15.31,21.1c1.03,3.62,1.65,7.29,1.77,11.05c0.01,0.19,0,0.38,0.02,0.56
			c0.23,1.91,0.83,2.55,2.76,2.59c1.07,0.02,1.78,0.41,2.34,1.25c0.65,0.98,0.81,2.04,0.06,2.97c-0.61,0.75-0.73,1.53-0.72,2.43
			c0.04,3.26,0.02,6.52,0.04,9.78c0,0.61,0.03,1.23,0.06,1.9c1.07,0.18,1.98,0.34,3.17,0.53c0.02,1.4-0.09,2.82-0.08,4.23
			c0.01,1.44-0.27,2.88-0.27,4.32c0,1.44-0.53,2.88-0.53,4.32c0,1.43,0,2.86,0,4.22c1.82,0.32,3.02,0.48,4.11,0.48
			c0.84,0,1.6-0.09,2.52-0.27c0.53-1.35,0.73-2.87,0.79-4.28c0.06-1.43,0.01-2.96,0.01-4.57c1.4,0,2.67,0,4.17,0
			c0.07,3.21-0.01,8.04,0.05,9.64c1.12,0,2.82,0,2.82,0c0-1.61,0-6.37,0-10.2c3.21-1.21,3.9-2.36,5.67-3.52
			c0.74-0.48,1.72-0.99,1.35-1.99c0.82-0.59,2.44,0.38,2.4-1.41c-0.15-0.12-0.24-0.25-0.34-0.26c-2.59-0.28-3.2-1.78-2.3-4.58
			c0.86-2.68,2.68-4.5,5.76-4.55c0.11,0,0.21-0.1,0.43-0.21c0.72-1.71-0.1-3.5-0.05-5.27c0.05-1.81-0.03-3.62-0.03-5.45
			c-0.6-0.2-0.03-0.35-1.64-0.51c0-0.74,0-1.42,0-2.14c1.61-0.15,0.77-0.29,1.18-0.47c0.15-1.57,0.39-3.18,0.53-4.75
			c2.31-1.53,2.31-1.53,2.18-3.42c-0.07-0.1-0.12-0.23-0.21-0.3c-1.69-1.33-1.69-1.53-0.29-3.03c0.37-0.39,0.75-0.9,0.84-1.4
			c0.34-2.09,0.55-4.2,0.84-6.3c0.38-2.75,0.79-5.5,1.46-8.28c0.11,0.26,0.28,0.52,0.31,0.79c0.4,3.47,0.77,6.94,1.16,10.41
			c0.08,0.74,0.15,1.49,0.23,2.23c0.12,1.17,0.19,2.28,1.29,3.12c0.68,0.52,0.46,1.28-0.14,2c-0.2,0.24-0.6,0.42-0.79,0.66
			c-0.55,0.71-0.78,1.75-0.14,2.39c0.48,0.48,1.19,0.86,1.19,1.35c0,1.44,0,2.94,0,4.5c1.61,0.15,1.61,0.29,3.21,0.45
			c0,0.72,0,1.44,0,2.27c-1.61,0.1-1.45,0.19-1.94,0.27c-0.39,0.36-0.84,8.15-0.51,11.31c1.23,0.22,2.49,0.42,3.59,1.26
			c1.35,1.03,2.3,2.26,2.77,3.89c0.46,1.6,0,2.87-1.47,3.59c-0.57,0.28-1.3,0.37-1.15,1.2c0.13,0.72,0.63,0.78,1.16,0.78
			c0.09,0,0.17,0,0.26,0c0.08,0,0.16,0,0.24,0.01c0.31,0.02,0.6,0.03,1.04,0.05c0.14,1.55,1.49,2.23,2.64,3.48
			c-0.74,0.04-1.8,0.06-1.8,0.09c0,3.78,0,7.52,0,11.31c0,0.11,0,0.21,1.61,0.34c0,4.62,0,8.33,0,14.76c1.61,0,2.98,0,4.37,0
			c0.33-3.21,0.44-17.22,0.16-22.13c-0.38-0.15-0.82-0.72-1.33-0.93c-0.06-0.46-0.12-0.94-0.19-1.52c-0.44-0.12-1.41-0.24-1.41-0.38
			c0-1.26,0-2.48,0-3.88c0.49,0.06,0.89,0.09,1.22,0.09c1.85,0,1.54-0.85,2.37-1.7c4.79-4.96,9.62-9.89,14.42-14.84
			c1.83-1.89,3.59-3.84,5.45-5.71c0.68-0.68,0.96-1.39,0.94-2.33c-0.03-1.69-0.01-3.39,0.06-5.08c0.05-1.23,0.25-2.44,0.84-3.73
			c1.2,1,1.11,2.28,1.27,3.37c0.27,1.91,0.33,3.86,0.4,5.79c0.03,0.75,0.29,1.28,0.8,1.81c2.75,2.83,5.47,5.69,8.2,8.54
			c0.69,0.72,1.38,1.45,2.02,2.22c0.54,0.63,1.16,1,1.98,1c0.04,0,0.09,0,0.13,0c0.92-0.04,1.84-0.06,2.98-0.1
			c-0.07-2.29-0.15-4.39-0.18-6.49c-0.03-2.12-0.01-4.24-0.01-6.3c-2.03-0.79-2.03-0.79-2.66-2.01c0.68-1.21,1.81-1.27,3.08-1.27
			c0.16,0,0.33,0,0.49,0c0.02,0,0.04,0,0.06,0c0.43-1.27,0.8-2.58,1.32-3.83c0.83-2,1.15-4.06,1.06-6.22
			c-0.09-2.07-0.06-4.14,0.01-6.21c0.09-2.87,0.25-5.75,0.4-8.62c0.01-0.21,0.15-0.42,0.33-0.86c0.46,0.81,0.64,1.43,0.69,2.09
			c0.03,0.44,0.02,0.88,0.03,1.32c0.12,5.07,0.09,10.15,0.43,15.21c0.16,2.45,1.03,4.85,1.58,7.31c0.59,0.09,1.03,0.13,1.45,0.22
			c0.48,0.1,1.01,0.2,1.47,0.35c0.51,0.17,1.02,0.54,0.87,1.11c-0.09,0.36-0.27,0.74-0.6,0.94c-0.52,0.32-1.46,0.51-1.46,0.79
			c0,3.48,0,6.96,0,10.57c0,0.07,1.19,0.13,2.04,0.2c0.13,0.61-0.05,1.25,0.12,2.06c0.6,0.03,1.18,0.06,1.75,0.09
			c0.05-21.91,0-44.6-0.18-46.43c-0.59-0.3-1.23-0.69-1.92-0.97c-0.94-0.39-1.6-0.95-1.48-2.2c-1.1-0.05-2.07-0.1-3.02-0.15
			c-0.64-2.59-0.03-3.36,3.05-3.72c0.04-0.5,0.11-1.04,0.11-1.57c0.01-4.01-0.04-8.03,0.02-12.04c0.06-3.75,0.14-7.51,0.39-11.25
			c0.22-3.29,0.69-6.57,1.01-9.86c0.19-1.93,0.3-3.86,0.45-5.79c0.04-0.47,0.09-0.94,0.44-1.46c0.08,0.24,0.24,0.48,0.25,0.73
			c0.16,3.94,0.26,7.88,0.47,11.82c0.13,2.49,0.47,4.97,0.66,7.46c0.09,1.25,0.13,2.51,0.14,3.76c0.01,3,0.09,6,0.09,9.2
			c1.09,0.08,1.97,0.12,2.93,0.12c1.07,0,2.25-0.04,3.94-0.1c0-5.67,0-11.22,0-16.86c0-0.21-1.04-0.42-1.48-0.63
			c-0.12-0.4-0.39-0.81-0.51-1.21c-0.54-0.1-0.98-0.18-1.5-0.27c-0.09-0.54-0.09-1.02-0.18-1.54c-0.44-0.13,0.45-0.25-1.15-0.39
			c0-0.66,0-1.28,0-1.89c0-4.7-0.12-9.43-0.17-14.13c-0.03-2.95,0.1-5.87,0.51-8.79c0.38-2.72,0.55-5.5,0.85-8.23
			c0.24-2.23,0.53-4.54,0.81-6.76c0.01-0.08,0.16-0.31,0.4-0.5c0.59,4.31,1.2,8.19,1.72,12.4c0.52,4.2,0.94,10.49,1.42,12.09
			c0.25,0,0.64,0,1.2,0c0.03,0,0.03-1.65,0.1-2.76c0.07-1.18,0.19-1.72,0.32-2.89c0.03-0.3,0.09-0.7,0.29-0.85
			c0.98-0.71,0.81-1.74,0.88-2.73c0.22-3.05,0.47-6.1,0.71-9.15c0.01-0.19-0.03-0.42,0.06-0.55c1.24-1.76,0.92-3.82,1.04-5.76
			c0.22-3.37,0.29-6.75,0.42-10.13c0-0.13-0.03-0.27,0.02-0.37c0.9-1.93,0.62-4.05,0.96-6.07c0.07-0.43,0.11-0.87,0.13-1.3
			c0.27-4.37,0.53-8.73,0.82-13.1c0.22-3.36,0.48-6.73,0.75-10.09c0.09-1.11,0.29-2.21,0.6-3.34c0.05,0.55,0.1,1.1,0.17,1.64
			c0.07,0.56,0.21,1.1,0.25,1.66c0.14,1.99,0.27,3.99,0.37,5.99c0.16,3.06,0.25,6.12,0.44,9.18c0.18,2.99,0.45,5.98,0.67,8.96
			c0.05,0.69,0.03,1.38,0.05,2.07c0.03,1.18,0.13,2.31,0.56,3.48c0.44,1.2,0.48,2.57,0.52,3.87c0.09,3.38,0.08,6.77,0.11,10.15
			c0.01,1.07,0.05,2.11,0.76,3.02c0.18,0.23,0.25,0.55,0.27,0.85c0.16,1.8,0.28,3.57,0.43,5.38c0.13,1.62,0.23,3.16,0.44,4.77
			c0.07,0.52,0.32,0.97,0.69,1.33c0.62,0.6,0.69,0.95,0.74,1.72c0.11,1.86,0.28,5.02,0.43,5.02c0.49,0,0.84,0,1.23,0
			c0.06,0,0.16,0.21,0.2,0.21c0.01,0,0.02-0.01,0.02-0.05c0.03-1-0.04-1.38,0.04-2.37c0.16-1.99,0.37-3.97,0.61-5.95
			c0.26-2.1,0.59-4.2,0.89-6.29c0.3-2.1,0.6-4.19,0.89-6.29c0.15-1.1,0.28-2.21,0.46-3.72c0.28,0.56,0.46,0.77,0.49,1
			c0.28,2.42,0.51,4.84,0.79,7.25c0.33,2.79,0.74,5.56,1.03,8.35c0.22,2.11,0.38,4.23,0.4,6.35c0.05,5.83,0.02,11.66,0.02,17.6
			c-0.45,0.16-0.89,0.32-1.37,0.49c-0.07,0.36-0.16,0.71-0.26,1.18c-0.49,0.08-1.05,0.17-1.65,0.27c-0.08,0.51-0.22,0.99-0.31,1.57
			c-0.5,0.1-1.73,0.2-1.73,0.32c0,5.58,0,11.07,0,16.78c1.65,0.08,2.77,0.11,3.78,0.11c0.96,0,1.81-0.02,2.92-0.03
			c0.05-0.61,0.23-1.09,0.23-1.57c0-2.07,0.02-4.14-0.03-6.21c-0.05-2.45,0.3-4.85,0.64-7.26c0.22-1.54,0.33-3.1,0.42-4.66
			c0.17-2.68,0.28-5.37,0.45-8.05c0.12-1.85,0.3-3.7,0.48-5.92c0.29,0.57,0.5,0.82,0.54,1.09c0.4,3.03,0.81,6.06,0.84,9.13
			c0.03,3.57,0.09,7.14,0.39,10.69c0.57,6.63,0.15,13.27,0.31,19.91c0.01,0.5,0,1,0,1.59c1.13,0.25,2.26,0.44,2.87,1.52
			c0.38,0.67,0.71,1.35,0.28,2.34c-0.87,0.07-1.84,0.18-2.92,0.27c-0.11,0.5-0.23,1.08-0.35,1.65c-0.59,0.29-1.21,0.7-1.82,1.01
			c-0.55,0.28-1.1,0.79-1.82,1.16c0.14,15.23,0.29,30.14,0.43,46.21c1.96,0,3.81,0,6.04,0c-0.68-1.61-0.82-1.23-0.82-1.35
			c0-8.05,0-16.05,0-24.19c0-0.04,0.68-0.6,1.34-0.65c0.17,4.65-0.29,10.12-0.11,13.33c0.5,0,1.99,0,1.99,0c0-8.04,0-15.17,0-23.15
			c0-0.35,0-0.48,0.25-0.48c0.21,0,0.61,0.1,1.36,0.24c0,5.14,0,8.92,0,15.35h1.61c0-8.04,0-14.8,0-22.27
			c0.54-0.02,0.86-0.03,1.07-0.03c0.27,0,0.35,0.01,0.44,0.01c0.05,0,0.1,0,0.19-0.01c0.13,0.13,0.38,0.29,0.38,0.34
			c0.08,3.99,0.16,7.5,0.24,12.32c0.45,0,2.49,0,2.49,0c0-3.81,0-7.34,0-10.81c1.61-0.23,1.86-0.38,2.44-0.56
			c0.03-0.6,0.66-1.15,0.66-1.7c0-3.39,0-6.77,0-10.16c0-0.5,0.03-1,0.13-1.49c0.04-0.16,0.39-0.36,0.59-0.36c0,0,0,0,0,0
			c0.2,0,0.58,0.19,0.61,0.35c0.11,0.48,0.21,0.99,0.21,1.48c0.01,3.26,0.16,6.52,0.16,9.78c0,0.62,0,1.25,0,1.99
			c0,0.07,0.7,0.12,1.32,0.21c-0.09-1.92-0.34-3.71-0.39-5.49c-0.04-1.82-0.03-3.64-0.04-5.45c-0.01-1.81,0-3.61,0-5.56
			c-0.04,0-0.07,0-0.11,0c-1.74,0-3-0.57-3.42-2.23c-0.59-0.1-1.14-0.08-1.54-0.3c-0.39-0.22-0.86-0.69-0.88-1.08
			c-0.02-0.38,0.4-0.89,0.76-1.16c0.32-0.24,0.82-0.22,1.32-0.33c0.64-1.4,1.71-2.24,3.32-2.24c0.14,0,0.29,0.01,0.45,0.02
			c0.19-1.73,0.01-3.6,2.18-4.26c2.14,0.56,1.92,2.4,2.04,4.15c1.53,0.27,3.22,0.35,3.47,2.16c0.94,0.33,1.74,0.5,2.42,0.88
			c0.68,0.38,0.65,1.14-0.05,1.49c-0.7,0.35-1.5,0.51-2.43,0.8c-0.26,1.88-1.91,2-3.65,2.21c0.09,5.43,0.19,10.78,0.29,16.25
			c0.31,0.04,0.6,0.08,0.94,0.13c0.07-0.31,0.19-0.54,0.19-0.77c0.02-3.64,0.08-7.27,0.09-10.91c0-0.44,0.08-0.88,0.11-1.32
			c0.04-0.57,0.41-0.83,0.98-0.83c0.17,0,0.35,0.02,0.55,0.07c0.19,4.49,0.34,9.04,0.52,13.72c0.69,0.03,1.19,0.06,2.8,0.1
			c0-2.31,0-4.48,0-6.71c0-0.19,0.14-0.31,0.63-0.49c0.08,0.41-0.57,0.71-0.56,1c0.01,4.7-0.07,9.43-0.07,14.13
			c0,0.68,0,1.69,0,1.69s1.08,0,1.67,0c0.11,0,0.29-1.49,0.31-2.34c0.05-2.32,0.05-4.44,0.06-6.76c0-0.61,0.02-1.22,0.02-1.94
			c0.53-0.04,0.91-0.06,1.37-0.1c0.07,0.33,0.25,0.61,0.26,0.9c0.02,4.51,0.15,9.03,0.15,13.54c0,2.19,0.25,4.39,0.27,6.58
			c0.02,1.3-0.89,1.35,2.32,1.71c0-5.15,0-10.27,0-15.54c0-0.04,0.66-0.13,1.3-0.17c0.04,0.62-0.42,1.04-0.41,1.52
			c0.02,2.26,0,4.39,0.03,6.64c0.08,5.07,0.19,9.89,0.3,14.96c0,0.24,0.07,0.28,0.12,0.28c0.47,0,0.27,0,1.88,0
			c0-3.21,0-8.02,0-12.67c0-0.03,0.93-0.05,1.52-0.08c0.05,0.37-0.12,0.6-0.12,0.84c0.02,7.08,0.04,14.17,0.06,21.25
			c0,0.67,0.07,1.34,0.11,2.05c0.74,0.2,1.45,0.26,2.14,0.26c0.82,0,1.61-0.08,2.39-0.09c0.32-1.57,0.32-43.32-0.01-45.52
			c-1.03-0.61-2.16-1.27-3.37-1.98c-0.06-0.41-0.14-0.9-0.24-1.58c-1.01-0.04-2.05-0.09-3.05-0.13c-0.57-2.6-0.24-2.92,3.44-4.18
			c0.02-0.6,0.06-1.26,0.06-1.93c0.01-6.33-0.05-12.66,0.05-18.99c0.05-2.86,0.44-5.72,0.67-8.58c0.15-1.93,0.28-3.86,0.42-5.79
			c0.14-1.92,0.28-3.85,0.57-5.78c0.62,3.32,0.75,6.68,0.99,10.04c0.25,3.48,0.72,6.95,0.96,10.43c0.23,3.42,0.29,6.86,0.43,10.44
			c2.14,0.12,4.16,0.23,6.31,0.36c0.07-0.48,0.18-0.89,0.19-1.3c0.1-4.69,0.19-9.39,0.29-14.08c0.01-0.61,0-1.22,0-1.86
			c-0.66-0.19-1.13-0.33-1.67-0.48c-0.1-0.37-0.21-0.77-0.34-1.26c-0.47-0.09-0.95-0.18-1.54-0.3c-0.09-0.48-0.19-1.01-0.31-1.62
			c-0.56-0.08-1.09-0.16-1.58-0.23c-0.74-12.5,0.17-24.78,2.58-37.01c0.31,1.96,0.63,3.92,0.91,5.89c0.29,2.04,0.55,4.08,0.82,6.12
			c0.26,1.98,0.55,3.95,0.76,5.93c0.21,2.05,0.34,4.1,0.52,6.3c0.3,0.05,0.7,0.11,1.21,0.19c0.08-0.51,0.17-0.92,0.2-1.34
			c0.12-1.74,0.22-3.49,0.34-5.24c0.02-0.25,0.01-0.55,0.14-0.72c1.45-1.88,1.13-4.15,1.4-6.28c0.25-1.98,0.24-4.02,0.76-5.93
			c0.93-3.42,0.96-6.89,1.13-10.36c0.11-2.12,0.18-4.25,0.41-6.36c0.12-1.1,0.56-2.15,0.84-3.23c0.09-0.36,0.16-0.74,0.18-1.11
			c0.16-3.37,0.27-6.75,0.46-10.12c0.17-2.99,0.43-5.98,0.65-8.97c0.03-0.37,0.03-0.75,0.05-1.13c0.14-3.12,0.28-6.25,0.44-9.37
			C624.34,176.91,624.44,176.75,624.6,176.3 M584.05,317.38c1.65,0,2.98-1.34,2.98-2.98c0-1.65-1.34-2.98-2.98-2.98
			c-1.65,0-2.98,1.34-2.98,2.98C581.07,316.04,582.4,317.38,584.05,317.38 M735.56,363.13h11.25v-25.72h-11.25V363.13 M735.56,401.7
			h11.25v-24.11h-11.25V401.7 M705.03,408.13h11.25v-22.5h-11.25V408.13 M685.74,408.13h9.64v-22.5h-9.64V408.13 M666.45,408.13
			h9.64v-22.5h-9.64V408.13 M647.17,408.13h9.64v-22.5h-9.64V408.13 M735.56,441.88h11.25v-25.72h-11.25V441.88 M705.03,441.88
			h11.25v-22.5h-11.25V441.88 M685.74,441.88h9.64v-22.5h-9.64V441.88 M666.45,441.88h9.64v-22.5h-9.64V441.88 M647.17,441.88h9.64
			v-22.5h-9.64V441.88 M576.44,296.41c0,0.23,0,0.38,0,0.57c0,2.39,0,4.74,0,7.11C576.44,301.47,576.44,299.06,576.44,296.41
			 M705.03,306.5v11.35c0,0,0,0,0,0V306.5 M320.89,359.84c0,0,0,0.02,0,0.07V359.84 M624.6,168.3c-0.07,0-0.14,0-0.21,0
			c-3.3,0.09-6.21,2.19-7.32,5.3l-0.03,0.08c-0.19,0.46-0.63,1.55-0.7,3.02c-0.13,2.59-0.24,5.19-0.36,7.79l-0.07,1.6
			c-0.01,0.16-0.01,0.32-0.02,0.48c-0.01,0.15-0.01,0.29-0.02,0.44c-0.07,0.95-0.14,1.9-0.22,2.85c-0.16,2.03-0.32,4.13-0.44,6.23
			c-0.12,2.19-0.21,4.39-0.3,6.51c-0.05,1.12-0.09,2.23-0.14,3.35c-0.05,0.18-0.11,0.36-0.17,0.54c-0.28,0.91-0.67,2.15-0.83,3.64
			c-0.18,1.61-0.27,3.17-0.35,4.68c-0.05,0-0.1,0-0.15,0c-0.05,0-0.11,0-0.16,0c-3.81,0-7.1,2.7-7.85,6.45
			c-1.42,7.2-2.34,14.44-2.74,21.66c-1.91,1.21-3.28,3.2-3.64,5.57c-0.34,2.24-0.49,4.36-0.64,6.41l-0.13,1.87
			c-0.09,1.29-0.18,2.58-0.28,3.87c-0.07,0.89-0.16,1.79-0.25,2.68c-0.2,2.04-0.41,4.15-0.45,6.4c-0.04,2.23-8.34-1.22-10.88-1.88
			c-0.66-0.17-1.34-0.26-2.01-0.26c-0.78,0-1.56,0.11-2.32,0.34c-3.18,0.96-10.71,1.83-10.92-0.74c-0.28-3.29-0.37-4.7-0.41-8.14
			c-0.03-3.47-0.46-6.7-0.87-9.83l-0.03-0.26c-0.23-1.74-0.92-2.94-1.25-3.52c-0.02-0.04-0.05-0.08-0.07-0.13
			c-0.65-1.3-1.63-2.36-2.79-3.11c-0.07-1.51-0.19-3.14-0.39-5.06c-0.18-1.77-0.41-3.5-0.63-5.18c-0.14-1.1-0.29-2.19-0.42-3.29
			c-0.15-1.28-0.28-2.55-0.42-3.83c-0.12-1.13-0.24-2.27-0.37-3.4c-0.2-1.75-0.9-3-1.2-3.53c-0.02-0.04-0.05-0.08-0.07-0.13
			c-1.37-2.75-4.16-4.43-7.16-4.43c-0.07,0-0.15,0-0.22,0c-0.04-1.58-0.11-3.97-1.01-6.41c-0.01-0.03-0.05-0.21-0.07-0.89
			c0-0.18-0.01-0.37-0.01-0.55c0-0.53-0.01-1.19-0.06-1.92c-0.08-1.17-0.18-2.33-0.27-3.49c-0.15-1.86-0.29-3.61-0.4-5.39
			c-0.11-1.76-0.18-3.52-0.26-5.37c-0.05-1.25-0.11-2.49-0.17-3.73c-0.1-1.85-0.22-3.86-0.38-6.14c-0.05-0.75-0.16-1.37-0.24-1.82
			c-0.02-0.1-0.04-0.2-0.05-0.29c-0.04-0.28-0.06-0.57-0.09-0.85l-0.05-0.56c-0.38-3.83-3.43-6.85-7.26-7.18
			c-0.23-0.02-0.47-0.03-0.7-0.03c-3.56,0-6.72,2.36-7.7,5.84c-0.45,1.62-0.74,3.21-0.87,4.84c-0.29,3.52-0.54,6.95-0.76,10.21
			c-0.19,2.82-0.36,5.64-0.53,8.47c-0.1,1.55-0.19,3.1-0.29,4.66c-0.02,0.34-0.04,0.45-0.04,0.48c-0.19,1.11-0.25,2.13-0.3,2.94
			c-0.03,0.42-0.06,0.98-0.1,1.24c-0.49,1.11-0.72,2.31-0.69,3.56c-0.03,0.78-0.06,1.57-0.08,2.35c-0.03,0-0.05,0-0.08,0
			c-1.85,0-3.67,0.64-5.13,1.86c-1.04,0.87-2.85,2.77-3.21,5.66c-0.26,2.08-0.56,4.51-0.82,6.88c-0.12,1.07-0.21,2.15-0.31,3.22
			c-0.15,1.67-0.3,3.26-0.51,4.77c-0.31,2.26-0.5,4.64-0.56,7.2c-0.84,0.57-1.57,1.3-2.15,2.17c-1.53,2.29-1.7,4.48-1.76,5.3
			c-0.05,0.64-0.09,1.28-0.14,1.92c-0.09,1.29-0.18,2.51-0.29,3.7c-0.11,1.18-0.25,2.36-0.39,3.53c-0.24,2.12-0.5,4.32-0.65,6.58
			c-0.24,3.7-0.34,7.33-0.4,11.65c-0.04,2.67-0.03,5.34-0.03,7.92c0,0.18,0,0.35,0,0.53c-0.6,0.51-1.17,1.12-1.67,1.85
			c-2.57,3.72-1.58,7.75-1.25,9.07c0.02,0.07,0.04,0.15,0.06,0.22c-0.63,0.7-1.15,1.52-1.5,2.43l-0.02,0.05
			c-0.23,0.51-0.77,1.7-0.85,3.34l-0.08,1.48c-0.12,2.38-0.25,4.83-0.33,7.3c-0.06,1.85-0.11,4.29,0,6.79
			c0.04,1.07-0.1,1.96-0.44,2.8c-1.29,0.6-2.4,1.43-3.32,2.51c-0.01-0.05-0.01-0.1-0.02-0.16c-0.15-1.43-0.53-5.22-4.04-8.14
			c-1.45-1.21-3.27-1.85-5.12-1.85c-0.59,0-1.19,0.07-1.77,0.2c-2.43,0.55-4.46,2.21-5.5,4.47c-0.95,2.08-1.46,4.29-1.56,6.74
			c-0.05,1.19-0.07,2.36-0.08,3.52c-0.65,0.68-1.29,1.36-1.91,2.02c-0.73,0.78-1.47,1.56-2.21,2.33c-2.09,2.16-4.19,4.31-6.28,6.46
			c-1.2,1.23-2.39,2.46-3.59,3.69c-1.04-1.96-2.53-3.68-4.44-5.14c-0.17-0.13-0.33-0.25-0.5-0.36c0-0.1,0.01-0.21,0.01-0.31
			c1.54-1.46,2.5-3.53,2.5-5.81v-2.27c0-2.67-1.31-5.06-3.35-6.51c-0.05-0.26-0.11-0.51-0.18-0.77c0.52-1.38,0.72-2.84,0.56-4.28
			c-0.18-1.62-0.79-3.13-1.77-4.41l-0.01-0.08c-0.05-0.51-0.1-1.02-0.16-1.54l-0.33-3.02c-0.27-2.48-0.54-4.95-0.83-7.43
			c-0.18-1.53-0.71-2.64-0.95-3.13c-1.29-2.89-4.16-4.74-7.3-4.74c-0.21,0-0.42,0.01-0.63,0.02c-3.46,0.27-6.35,2.74-7.15,6.12
			c-0.77,3.2-1.21,6.22-1.6,9.04c-0.12,0.85-0.22,1.7-0.33,2.55c-0.08,0.64-0.16,1.27-0.24,1.88c-1.12,1.39-2.41,3.54-2.18,6.53
			c0.03,0.36,0.08,0.71,0.14,1.05c-0.43,0.87-0.7,1.81-0.79,2.8c-0.03,0.36-0.07,0.73-0.12,1.11c-1.03,1.35-1.63,3.03-1.63,4.85
			v2.14c0,1.84,0.63,3.55,1.69,4.92c0,0.25,0,0.5-0.01,0.74c-2.65,1.74-4.67,4.44-5.77,7.89c-0.7,2.19-0.92,4.22-0.67,6.08
			c-0.34,0.23-0.69,0.4-1.32,0.64c-0.04,0.01-0.07,0.03-0.11,0.04h-2.65c0-0.19,0-0.37,0-0.56c-0.03-2.57-1.29-4.88-3.24-6.33
			c0-0.1,0-0.19,0-0.29c0-1.5-0.01-2.99-0.02-4.49c1.8-3.34,1.59-7.41-0.69-10.83c-1.06-1.59-2.42-2.81-4.01-3.63
			c-0.32-3.2-0.94-6.41-1.85-9.59c-3.02-10.58-9.24-19.15-18.47-25.5c-3.67-2.52-7.7-4.61-12.24-6.32l0-0.45c0-0.19,0-0.38,0-0.57
			c2.55-1.34,4.28-4.02,4.28-7.08v-3.41c0-3.36-2.08-6.25-5.03-7.43c-1.44-3.42-3.99-6.13-7.44-7.87c-0.23-1.65-0.41-3.05-0.56-4.52
			c-0.37-3.7-3.24-6.66-6.92-7.14l-0.8-0.1c-0.28-0.04-0.58-0.07-0.93-0.12c-0.35-0.05-0.7-0.07-1.05-0.07
			c-3.85,0-7.22,2.78-7.88,6.67c-0.31,1.81-0.49,3.52-0.67,5.18c-4.02,1.79-6.84,4.94-8.12,9c-2.37,1.4-3.92,3.98-3.92,6.88v2.67
			c0,1.8,0.6,3.47,1.61,4.81v3.2c-18.29,6.66-29.4,21-31.76,41.08c-0.89,0.8-1.74,1.55-2.61,2.19c-3.11,2.3-4.66,5.57-4.59,9.72
			c0.08,5,0.14,10.49,0.17,15.58c-2.72,1.28-4.6,4.04-4.6,7.24v0.07v0.5c0,0.86,0.14,1.68,0.39,2.46c-2.17,1.43-3.6,3.89-3.6,6.68
			v47.16v1.96v42.5c0,4.42,3.58,8,8,8h18.31h45.69h18.17h45.69h18.17h45.69h18.82l25.24,0l16.55,0c2.12,0,4.16-0.84,5.66-2.34
			c1.5-1.5,2.34-3.53,2.34-5.66l0.01-56.17l6.08-9.16l6.85,9.81l-0.01,55.51c0,4.42,3.58,8,8,8l15.42,0l24.77,0h79.99h21.07h21.09
			c4.42,0,8-3.58,8-8V321.34c0-3.56-2.32-6.57-5.53-7.61l-5.97-10.57l-9.31-16.27c-1.41-2.47-4.03-4-6.87-4.03
			c-0.03,0-0.05,0-0.08,0c-2.81,0-5.42,1.48-6.87,3.9l-0.74,1.24v-10.05c0-4.42-3.58-8-8-8h-3.21c-4.42,0-8,3.58-8,8v17.15v18.91
			c-0.11,0.05-0.21,0.09-0.31,0.14c-0.43-0.46-0.88-0.89-1.37-1.28v-6.35c0-4.42-3.58-8-8-8s-8,3.58-8,8v8.36
			c-1.98,3.17-3.23,7.8-3.73,13.85c-0.1,1.21,0.08,2.42,0.51,3.53c0,0.11-0.01,0.23-0.01,0.34c-0.01,0.39-0.02,0.78-0.02,1.17
			c0,0.39,0.01,0.78,0.02,1.17c0.01,0.23,0.01,0.46,0.01,0.68v3.49c-1.22-0.74-2.64-1.15-4.14-1.15c0,0-0.01,0-0.01,0
			c-2.13,0-4.11,0.85-5.56,2.26v-4.6c0-0.23,0.01-0.45,0.01-0.68c0.01-0.39,0.02-0.78,0.02-1.17c0-0.39-0.01-0.78-0.02-1.17
			c0-0.08,0-0.17-0.01-0.25c0.45-1.14,0.64-2.37,0.54-3.62c-0.5-6.07-1.76-10.71-3.76-13.88v-7.96c0-4.42-3.58-8-8-8h-1.61
			c-4.42,0-8,3.58-8,8v6.87c-3.01,3.54-3.88,8.73-4.29,12.75c-0.35,0.89-0.54,1.87-0.54,2.88v2.55c0,0.22-0.01,0.45-0.01,0.67
			c-0.01,0.38-0.02,0.77-0.02,1.16c0,0.39,0.01,0.77,0.02,1.16c0.01,0.23,0.01,0.45,0.01,0.67v14.62l-2.18-6.73
			c-1.06-3.27-4.1-5.5-7.53-5.53v-1.79c0-0.11,0-0.21-0.01-0.32l-0.01-0.26c-0.04-6.1-0.09-12.2-0.14-18.29
			c-0.04-4.6-0.08-9.19-0.11-13.79c0.4-0.26,0.77-0.56,1.11-0.88c1.67-0.4,3.18-1.34,4.28-2.68c1.39-1.68,2.03-3.85,1.78-6.01
			c0-0.06-0.01-0.16-0.01-0.26c-0.04-1-0.12-2.87-1.12-4.87c-0.67-1.32-1.51-2.32-2.41-3.08c-0.01-0.62-0.02-1.24-0.03-1.86
			c-0.07-4.37-0.15-8.89-0.26-13.35c-0.05-1.99-0.17-3.93-0.28-5.82c-0.05-0.82-0.1-1.64-0.14-2.46l-0.02-0.27l-0.18-2.67
			c-0.18-2.73-0.37-5.47-0.54-8.2v0c0.01-0.44,0.03-1.25-0.12-2.23c-0.25-1.56-0.84-2.64-1.16-3.22c-0.04-0.07-0.09-0.15-0.14-0.26
			c-0.65-1.31-1.62-2.38-2.78-3.14c-0.07-1.16-0.17-2.32-0.31-3.5c-0.14-1.17-0.27-2.34-0.39-3.51c-0.14-1.32-0.29-2.63-0.44-3.94
			c-0.36-2.98-0.76-5.98-1.11-8.63c-0.23-1.73-0.93-2.92-1.24-3.43c-0.01-0.02-0.03-0.05-0.05-0.09c-1.4-2.66-4.15-4.28-7.08-4.28
			c-0.12,0-0.25,0-0.38,0.01c0-0.22-0.01-0.44-0.01-0.66c-0.02-2-0.05-4.63-0.96-7.44c-0.02-0.34-0.04-0.68-0.07-1.02
			c-0.09-1.37-0.18-2.67-0.24-3.96c-0.12-2.52-0.22-5.05-0.32-7.57l-0.12-3.08l0-0.05c0-0.15-0.01-0.31-0.02-0.46l-0.15-2.72
			c-0.19-3.32-0.37-6.64-0.55-9.96c0.01-0.4,0.02-1.13-0.12-2.01c-0.2-1.24-0.63-2.15-0.83-2.59c-0.02-0.04-0.04-0.08-0.06-0.13
			C630.73,170.23,627.82,168.3,624.6,168.3L624.6,168.3z"/>
	</g>
	<polygon class="st3" points="144.08,541.17 403.58,535.53 668,535.53 935.03,542.88 935.03,636.28 745.81,636.28 328.19,636.28 
		144.08,636.28 	"/>
	<defs>
		<filter id="Adobe_OpacityMaskFilter" filterUnits="userSpaceOnUse" x="283.43" y="685.33" width="512.25" height="122.91">
			<feColorMatrix  type="matrix" values="1 0 0 0 0  0 1 0 0 0  0 0 1 0 0  0 0 0 1 0"/>
		</filter>
	</defs>
	<mask maskUnits="userSpaceOnUse" x="283.43" y="685.33" width="512.25" height="122.91" id="SVGID_1_">
		<g class="st4">
			<path class="st1" d="M779.28,621.3c0,164.72-239.73,261.97-239.73,261.97S299.83,786.02,299.83,621.3c0-36.97,0-54.51,0-54.51
				s90.87-0.13,239.73-0.13s239.73,0.13,239.73,0.13S779.28,585.28,779.28,621.3z"/>
		</g>
	</mask>
	<path class="st5" d="M795.68,685.33H283.43v122.91c0,0,137.79-29.8,253.74-29.8s258.5,29.8,258.5,29.8V685.33z"/>
	<g>
		<g>
			<polygon class="st6" points="675.53,535.53 675.53,513.15 403.58,513.15 403.58,535.53 148.28,535.17 181.01,500.06 
				145.28,464.17 346.86,464.6 346.86,442.23 732.24,442.23 732.24,464.6 936.25,464.6 898.1,500.06 936.25,535.53 			"/>
		</g>
		<path class="st7" d="M396.04,505.62c-2.77,0-2.77,0-41.65,0l41.65,22.38V505.62z"/>
		<path class="st7" d="M683.06,505.62c2.77,0,41.65,0,41.65,0l-41.65,22.38V505.62z"/>
	</g>
	<path class="st0" d="M935.03,524.1l-7.68-7.14l-18.18-16.89l18.18-16.89l7.68-7.14v-18.96h-66.15h-129.1v-7.31v-15.07h-15.07
		H539.55H354.4h-15.07v15.07v7.31H162.02h-18.27v18.65l8.02,7.45l18.18,16.89l-18.18,16.89l-7.68,7.14v18.96h17.94h113.5h135.59H668
		h15.07h185.81h66.15V524.1z M683.06,527.99v-22.38H539.55H396.04v22.38H162.02l30.05-27.93l-30.05-27.93H354.4v-22.38h185.16
		h185.16v22.38h192.38l-30.05,27.93l30.05,27.93H683.06z"/>
	<g>
		<path class="st0" d="M430.76,463.78v3.08h-4.43v23.33h-3.8v-23.33h-4.43v-3.08H430.76z"/>
		<path class="st0" d="M436.67,463.78h3.8v26.41h-3.8V463.78z"/>
		<path class="st0" d="M448.35,463.78H457c2.62,0,3.93,1.24,3.93,3.71v8.77c0,2.47-1.31,3.71-3.93,3.71h-4.85v10.21h-3.8V463.78z
			 M457.13,475.68v-7.59c0-0.51-0.09-0.84-0.25-0.99c-0.17-0.15-0.51-0.23-1.01-0.23h-3.71v10.08h3.71c0.51,0,0.84-0.08,1.01-0.25
			C457.04,476.52,457.13,476.18,457.13,475.68z"/>
		<path class="st0" d="M475.06,485.89v-6.46c0-0.51-0.08-0.84-0.23-0.99c-0.16-0.15-0.49-0.23-0.99-0.23h-3.12
			c-2.56,0-3.84-1.25-3.84-3.75v-6.96c0-2.47,1.31-3.71,3.93-3.71h4.13c2.62,0,3.93,1.24,3.93,3.71v3.88h-3.84v-3.29
			c0-0.51-0.09-0.84-0.25-0.99c-0.17-0.15-0.51-0.23-1.01-0.23h-1.77c-0.51,0-0.85,0.08-1.01,0.23c-0.17,0.16-0.25,0.49-0.25,0.99
			v5.86c0,0.51,0.08,0.84,0.25,0.99c0.16,0.15,0.51,0.23,1.01,0.23h3.08c2.59,0,3.88,1.24,3.88,3.71v7.59
			c0,2.48-1.32,3.71-3.96,3.71h-4.1c-2.61,0-3.92-1.24-3.92-3.71v-3.88h3.84v3.29c0,0.51,0.08,0.84,0.25,0.99
			c0.17,0.15,0.51,0.23,1.01,0.23h1.77c0.51,0,0.84-0.08,0.99-0.23C474.98,486.72,475.06,486.39,475.06,485.89z"/>
		<path class="st0" d="M485.86,463.78h8.64c2.62,0,3.93,1.24,3.93,3.71v8.77c0,2.47-1.31,3.71-3.93,3.71h-4.85v10.21h-3.8V463.78z
			 M494.63,475.68v-7.59c0-0.51-0.09-0.84-0.25-0.99c-0.17-0.15-0.51-0.23-1.01-0.23h-3.71v10.08h3.71c0.51,0,0.84-0.08,1.01-0.25
			C494.54,476.52,494.63,476.18,494.63,475.68z"/>
		<path class="st0" d="M508.72,463.78h4.68c2.62,0,3.93,1.24,3.93,3.71v18.98c0,2.48-1.31,3.71-3.93,3.71h-4.68
			c-2.65,0-3.97-1.24-3.97-3.71v-18.98C504.75,465.02,506.07,463.78,508.72,463.78z M513.53,485.89v-17.8
			c0-0.51-0.08-0.84-0.25-0.99c-0.17-0.15-0.51-0.23-1.01-0.23h-2.45c-0.51,0-0.84,0.08-0.99,0.23c-0.16,0.16-0.24,0.49-0.24,0.99
			v17.8c0,0.51,0.08,0.84,0.24,0.99c0.15,0.15,0.48,0.23,0.99,0.23h2.45c0.51,0,0.84-0.08,1.01-0.23
			C513.44,486.72,513.53,486.39,513.53,485.89z"/>
		<path class="st0" d="M528.5,479.52v10.67h-3.8v-26.41h8.64c2.62,0,3.93,1.24,3.93,3.71v8.27c0,2.14-0.94,3.36-2.82,3.67
			l4.17,10.76h-4.09l-3.97-10.67H528.5z M528.5,466.86v9.62h3.71c0.51,0,0.84-0.08,1.01-0.23c0.16-0.15,0.25-0.49,0.25-0.99v-7.17
			c0-0.51-0.09-0.84-0.25-0.99c-0.17-0.15-0.51-0.23-1.01-0.23H528.5z"/>
		<path class="st0" d="M555.24,463.78v3.08h-4.43v23.33h-3.8v-23.33h-4.43v-3.08H555.24z"/>
		<path class="st0" d="M579.79,490.19l-1.05-6.12h-5.57l-0.97,6.12h-3.8l4.68-26.41h5.53l5.02,26.41H579.79z M573.64,480.99h4.6
			l-2.4-13.92L573.64,480.99z"/>
		<path class="st0" d="M593.29,479.52v10.67h-3.8v-26.41h8.64c2.62,0,3.93,1.24,3.93,3.71v8.27c0,2.14-0.94,3.36-2.82,3.67
			l4.17,10.76h-4.09l-3.97-10.67H593.29z M593.29,466.86v9.62H597c0.51,0,0.84-0.08,1.01-0.23c0.16-0.15,0.25-0.49,0.25-0.99v-7.17
			c0-0.51-0.09-0.84-0.25-0.99c-0.17-0.15-0.51-0.23-1.01-0.23H593.29z"/>
		<path class="st0" d="M613.2,487.11h7.63v3.08h-11.47v-26.41h11.18v3.08h-7.34V475h6.07v3.08h-6.07V487.11z"/>
		<path class="st0" d="M636.4,463.78h3.5v26.41h-3.84l-5.57-19.07v19.07h-3.5v-26.41H631l5.4,18.52V463.78z"/>
		<path class="st0" d="M657.15,490.19l-1.05-6.12h-5.57l-0.97,6.12h-3.8l4.68-26.41h5.53l5.02,26.41H657.15z M651,480.99h4.6
			l-2.4-13.92L651,480.99z"/>
	</g>
	<g>
		<polygon class="st0" points="313.82,481.65 319.25,492.64 331.37,494.4 322.6,502.96 324.67,515.04 313.82,509.33 302.97,515.04 
			305.05,502.96 296.27,494.4 308.4,492.64 		"/>
		<polygon class="st0" points="269.17,481.65 274.6,492.64 286.72,494.4 277.95,502.96 280.02,515.04 269.17,509.33 258.33,515.04 
			260.4,502.96 251.62,494.4 263.75,492.64 		"/>
		<polygon class="st0" points="224.52,481.65 229.95,492.64 242.08,494.4 233.3,502.96 235.37,515.04 224.52,509.33 213.68,515.04 
			215.75,502.96 206.97,494.4 219.1,492.64 		"/>
		<polygon class="st0" points="850.43,481.65 855.86,492.64 867.99,494.4 859.21,502.96 861.28,515.04 850.43,509.33 839.59,515.04 
			841.66,502.96 832.88,494.4 845.01,492.64 		"/>
		<polygon class="st0" points="805.79,481.65 811.21,492.64 823.34,494.4 814.56,502.96 816.63,515.04 805.79,509.33 794.94,515.04 
			797.01,502.96 788.23,494.4 800.36,492.64 		"/>
		<polygon class="st0" points="761.14,481.65 766.56,492.64 778.69,494.4 769.91,502.96 771.98,515.04 761.14,509.33 750.29,515.04 
			752.36,502.96 743.59,494.4 755.71,492.64 		"/>
	</g>
	<g>
		<path class="st8" d="M462.1,640.39l3.87-3.86h10.59l3.87,3.86v16.35l-3.87,3.86h-10.59l-3.87-3.86V640.39z M473.82,642.75
			l-0.8-0.79h-3.51l-0.8,0.79v11.65l0.8,0.79h3.51l0.8-0.79V642.75z"/>
		<path class="st8" d="M510.12,651.46h-6.87v3.72h1.45v5.42h-9.51v-5.42h1.45v-13.23h-1.45v-5.42h14.93l3.83,3.86v7.25
			L510.12,651.46z M503.25,646.04h3.33l0.76-0.75v-2.54l-0.76-0.79h-3.33V646.04z"/>
		<path class="st8" d="M525.7,655.19h1.45v5.42h-9.51v-5.42h1.45v-13.23h-1.45v-5.42h14.93l3.83,3.86v6.16l-1.59,1.59l1.59,1.55v5.5
			h1.45v5.42h-8.06v-8.97l-0.76-0.8h-3.33V655.19z M525.7,645.43h3.33l0.76-0.79v-1.9l-0.76-0.79h-3.33V645.43z"/>
		<path class="st8" d="M559.54,636.53v5.42h-1.23l5.31,13.23h1.45v5.42h-9.29v-5.42h0.83l-0.36-1.12h-6.4l-0.4,1.12h0.79v5.42h-9.22
			v-5.42h1.45l5.32-13.23h-1.05v-5.42H559.54z M551.48,649.44h3.11l-1.55-3.76L551.48,649.44z"/>
		<path class="st8" d="M580.55,655.19v-4.01h-4.74v4.01h1.45v5.42h-9.51v-5.42h1.45v-13.23h-1.45v-5.42h9.51v5.42h-1.45v3.29h4.74
			v-3.29h-1.48v-5.42h9.54v5.42h-1.45v13.23h1.45v5.42h-9.54v-5.42H580.55z"/>
		<path class="st8" d="M611.61,656.75l-3.87,3.86h-10.59l-3.87-3.86v-14.8h-1.45v-5.42h9.51v5.42h-1.45v12.44l0.8,0.79h3.51
			l0.8-0.79v-12.44h-1.48v-5.42h9.54v5.42h-1.45V656.75z"/>
	</g>
	<g>
		<g>
			<defs>
				<rect id="SVGID_2_" x="410.4" y="604.74" width="258.3" height="258.3"/>
			</defs>
			<clipPath id="SVGID_3_">
				<use xlink:href="#SVGID_2_"  style="overflow:visible;"/>
			</clipPath>
			<g class="st9">
				<defs>
					<rect id="SVGID_4_" x="410.4" y="604.74" width="258.3" height="258.3"/>
				</defs>
				<clipPath id="SVGID_5_">
					<use xlink:href="#SVGID_4_"  style="overflow:visible;"/>
				</clipPath>
				<path class="st10" d="M478.96,734.34c8.37-1.23,15.9-5.58,17.46-8.28c2.51-4.35-5.22-13.51-17.26-20.47
					c-12.04-6.95-23.85-9.06-26.36-4.71c-1.55,2.7-1.55,11.35,1.54,19.2c-5.25-6.59-12.74-10.92-15.86-10.92
					c-5.02,0-9.09,11.27-9.09,25.18c0,13.91,4.07,25.18,9.09,25.18c3.1,0,10.56-4.3,15.81-10.86c-3.06,7.84-3.06,16.45-1.51,19.15
					c2.51,4.35,14.31,2.24,26.35-4.72c12.05-6.95,19.77-16.11,17.27-20.46C494.84,739.91,487.32,735.57,478.96,734.34
					 M455.93,702.92c1.99-3.44,11.92-1.44,22.18,4.49c10.26,5.92,16.96,13.52,14.97,16.96c-1.99,3.44-11.92,1.43-22.17-4.49
					C460.65,713.96,453.95,706.37,455.93,702.92 M449.64,737.58c-2.42,0-3.91,2.15-4.19,4.17c-1.1,8.18-3.65,14.03-6.75,14.03
					c-3.98,0-7.2-9.61-7.2-21.45c0-11.85,3.22-21.45,7.2-21.45c3.1,0,5.74,5.82,6.75,13.99c0.48,3.1,1.9,4.21,4.17,4.21h10.04
					c-0.22-1.19-0.54-2.34-0.96-3.47c1.46,1.75,3.17,3.28,5.18,4.44c2.03,1.17,4.22,1.9,6.48,2.28c-2.27,0.38-4.47,1.1-6.51,2.28
					c-1.99,1.15-3.68,2.66-5.13,4.38c0.4-1.11,0.72-2.25,0.94-3.41H449.64z M478.08,761.26c-10.26,5.92-20.19,7.94-22.17,4.49
					c-1.99-3.44,4.72-11.03,14.97-16.96c10.26-5.92,20.19-7.94,22.18-4.49C495.04,747.74,488.34,755.33,478.08,761.26"/>
				<path class="st10" d="M519.34,722.38h-6.58v-15.25h6.29c3.19,0,4.96,1.66,4.96,3.93c0,1.86-1.11,3.02-2.6,3.5
					c1.73,0.31,2.95,1.9,2.95,3.69C524.37,720.67,522.51,722.38,519.34,722.38 M518.62,709.59h-2.8v3.82h2.8
					c1.44,0,2.27-0.65,2.27-1.9C520.9,710.29,520.07,709.59,518.62,709.59 M518.84,715.78h-3.01v4.11h3.08
					c1.48,0,2.36-0.72,2.36-2.01C521.27,716.56,520.33,715.78,518.84,715.78"/>
				<path class="st10" d="M531.12,710.07c1.94,0,3.28,0.92,4,1.92v-1.73h3.08v12.11h-3.08v-1.77c-0.72,1.05-2.1,1.97-4.02,1.97
					c-3.06,0-5.51-2.51-5.51-6.29C525.59,712.5,528.04,710.07,531.12,710.07 M531.91,712.76c-1.64,0-3.19,1.22-3.19,3.52
					c0,2.29,1.55,3.6,3.19,3.6c1.68,0,3.21-1.27,3.21-3.56C535.12,714.03,533.59,712.76,531.91,712.76"/>
				<path class="st10" d="M545.96,710.07c3.02,0,5.05,1.57,5.7,4.28h-3.3c-0.35-1.03-1.16-1.68-2.43-1.68
					c-1.71,0-2.84,1.29-2.84,3.65c0,2.36,1.14,3.63,2.84,3.63c1.27,0,2.05-0.57,2.43-1.66h3.3c-0.65,2.58-2.69,4.28-5.7,4.28
					c-3.5,0-5.99-2.45-5.99-6.25C539.97,712.52,542.46,710.07,545.96,710.07"/>
				<polygon class="st10" points="553.48,706.21 556.54,706.21 556.54,715.4 560.6,710.27 564.58,710.27 559.25,716.35 
					564.62,722.38 560.64,722.38 556.54,717.22 556.54,722.38 553.48,722.38 				"/>
				<path class="st10" d="M572.86,710.07c3.1,0,5.53,2.43,5.53,6.21c0,3.78-2.43,6.29-5.53,6.29c-1.9,0-3.26-0.87-4-1.92v1.73h-3.06
					v-16.17h3.06v5.84C569.6,710.93,571.02,710.07,572.86,710.07 M572.05,712.76c-1.64,0-3.19,1.27-3.19,3.56
					c0,2.3,1.55,3.56,3.19,3.56c1.66,0,3.21-1.31,3.21-3.6C575.26,713.98,573.71,712.76,572.05,712.76"/>
				<path class="st10" d="M585.55,722.57c-3.5,0-6.14-2.45-6.14-6.25c0-3.82,2.73-6.25,6.23-6.25c3.5,0,6.23,2.43,6.23,6.25
					C591.87,720.13,589.07,722.57,585.55,722.57 M585.55,719.91c1.62,0,3.17-1.18,3.17-3.59c0-2.42-1.51-3.58-3.12-3.58
					c-1.62,0-3.08,1.16-3.08,3.58C582.52,718.73,583.92,719.91,585.55,719.91"/>
				<path class="st10" d="M602.16,715.69c0-1.94-1.07-2.99-2.69-2.99c-1.66,0-2.73,1.05-2.73,2.99v6.69h-3.06v-12.11h3.06v1.51
					c0.79-1.03,2.1-1.68,3.65-1.68c2.82,0,4.83,1.84,4.83,5.18v7.1h-3.06V715.69z"/>
				<path class="st10" d="M612.98,722.57c-3.52,0-6.08-2.45-6.08-6.25c0-3.82,2.49-6.25,6.08-6.25c3.5,0,5.97,2.38,5.97,5.99
					c0,0.39-0.02,0.79-0.09,1.18H610c0.15,1.79,1.38,2.8,2.91,2.8c1.31,0,2.03-0.66,2.43-1.47h3.3
					C617.98,720.8,615.97,722.57,612.98,722.57 M610.03,715.19h5.75c-0.04-1.6-1.31-2.6-2.89-2.6
					C611.43,712.59,610.27,713.53,610.03,715.19"/>
				<polygon class="st11" points="512.77,726.87 516.24,726.87 521.09,738.21 525.94,726.87 529.4,726.87 529.4,742.12 
					526.34,742.12 526.34,732.2 522.25,742.12 519.93,742.12 515.83,732.2 515.83,742.12 512.77,742.12 				"/>
				<path class="st11" d="M537.26,742.32c-3.52,0-6.08-2.45-6.08-6.25c0-3.82,2.49-6.25,6.08-6.25c3.5,0,5.97,2.38,5.97,5.99
					c0,0.39-0.02,0.79-0.09,1.18h-8.85c0.15,1.79,1.38,2.8,2.91,2.8c1.31,0,2.03-0.66,2.43-1.47h3.3
					C542.27,740.55,540.26,742.32,537.26,742.32 M534.31,734.93h5.75c-0.04-1.59-1.31-2.6-2.89-2.6
					C535.71,732.33,534.55,733.27,534.31,734.93"/>
				<path class="st11" d="M561.95,735.43c0-1.92-1.07-2.93-2.69-2.93c-1.64,0-2.71,1-2.71,2.93v6.69h-3.06v-6.69
					c0-1.92-1.07-2.93-2.69-2.93c-1.66,0-2.73,1-2.73,2.93v6.69h-3.06v-12.11h3.06v1.47c0.76-1.01,2.05-1.64,3.56-1.64
					c1.88,0,3.43,0.81,4.26,2.32c0.79-1.38,2.38-2.32,4.15-2.32c2.91,0,4.96,1.84,4.96,5.18v7.1h-3.06V735.43z"/>
				<path class="st11" d="M574.54,729.82c3.1,0,5.53,2.43,5.53,6.21c0,3.78-2.42,6.29-5.53,6.29c-1.9,0-3.26-0.87-4-1.92v1.73h-3.06
					v-16.17h3.06v5.84C571.29,730.67,572.71,729.82,574.54,729.82 M573.73,732.51c-1.64,0-3.19,1.27-3.19,3.56
					c0,2.3,1.55,3.57,3.19,3.57c1.66,0,3.21-1.31,3.21-3.6C576.94,733.73,575.39,732.51,573.73,732.51"/>
				<path class="st11" d="M587.15,742.32c-3.52,0-6.08-2.45-6.08-6.25c0-3.82,2.49-6.25,6.08-6.25c3.5,0,5.97,2.38,5.97,5.99
					c0,0.39-0.02,0.79-0.09,1.18h-8.85c0.15,1.79,1.38,2.8,2.91,2.8c1.31,0,2.03-0.66,2.43-1.47h3.3
					C592.15,740.55,590.14,742.32,587.15,742.32 M584.2,734.93h5.75c-0.04-1.59-1.31-2.6-2.89-2.6
					C585.6,732.33,584.44,733.27,584.2,734.93"/>
				<path class="st11" d="M597.97,742.12h-3.06v-12.11h3.06v1.88c0.77-1.25,2.03-2.05,3.72-2.05v3.21h-0.81
					c-1.81,0-2.91,0.7-2.91,3.04V742.12z"/>
				<path class="st11" d="M613.44,742.32c-3.5,0-6.14-2.45-6.14-6.25c0-3.82,2.73-6.25,6.23-6.25c3.5,0,6.23,2.43,6.23,6.25
					C619.75,739.87,616.96,742.32,613.44,742.32 M613.44,739.65c1.61,0,3.17-1.18,3.17-3.58c0-2.43-1.51-3.58-3.13-3.58
					c-1.62,0-3.08,1.16-3.08,3.58C610.4,738.47,611.8,739.65,613.44,739.65"/>
				<path class="st11" d="M621.89,732.53h-1.38v-2.51h1.38v-0.61c0-2.97,1.68-4.35,5.09-4.26v2.58c-1.49-0.04-1.99,0.44-1.99,1.79
					v0.5h2.12v2.51h-2.12v9.59h-3.1V732.53z"/>
				<path class="st11" d="M518.03,762.02c-3.17,0-5.62-1.66-5.66-4.55h3.28c0.09,1.22,0.9,2.03,2.32,2.03c1.44,0,2.3-0.77,2.3-1.86
					c0-3.3-7.87-1.31-7.85-6.84c0-2.76,2.23-4.42,5.38-4.42c3.12,0,5.27,1.59,5.46,4.35h-3.37c-0.07-1-0.87-1.79-2.18-1.81
					c-1.2-0.05-2.1,0.54-2.1,1.79c0,3.06,7.82,1.35,7.82,6.73C523.43,759.86,521.51,762.02,518.03,762.02"/>
				<path class="st11" d="M537.07,761.87h-3.08v-1.53c-0.77,1.03-2.1,1.68-3.6,1.68c-2.82,0-4.85-1.84-4.85-5.16v-7.1h3.06v6.66
					c0,1.94,1.07,2.99,2.69,2.99c1.66,0,2.71-1.05,2.71-2.99v-6.66h3.08V761.87z"/>
				<path class="st11" d="M548.12,755.18c0-1.94-1.07-2.99-2.69-2.99c-1.66,0-2.73,1.05-2.73,2.99v6.69h-3.06v-12.11h3.06v1.51
					c0.79-1.03,2.1-1.69,3.65-1.69c2.82,0,4.83,1.84,4.83,5.18v7.1h-3.06V755.18z"/>
				<path class="st11" d="M554.13,752.27h-1.44v-2.51h1.44v-2.99h3.08v2.99h2.71v2.51h-2.71v5.86c0,0.81,0.33,1.16,1.29,1.16h1.42
					v2.58H558c-2.32,0-3.87-0.98-3.87-3.76V752.27z"/>
				<path class="st11" d="M566.98,762.07c-3.52,0-6.08-2.45-6.08-6.25c0-3.83,2.49-6.25,6.08-6.25c3.5,0,5.97,2.38,5.97,5.99
					c0,0.39-0.02,0.79-0.09,1.18h-8.85c0.15,1.79,1.38,2.8,2.91,2.8c1.31,0,2.03-0.66,2.43-1.47h3.3
					C571.99,760.29,569.97,762.07,566.98,762.07 M564.03,754.68h5.75c-0.04-1.59-1.31-2.6-2.89-2.6
					C565.43,752.08,564.27,753.02,564.03,754.68"/>
				<rect x="574.74" y="745.7" class="st11" width="3.06" height="16.17"/>
				<path class="st11" d="M599.28,751.2h-3.52c-0.7-1.29-1.97-1.97-3.58-1.97c-2.73,0-4.63,1.94-4.63,4.98
					c0,3.11,1.92,5.03,4.77,5.03c2.36,0,3.87-1.35,4.33-3.52h-5.25v-2.34h8.26v2.66c-0.61,3.11-3.39,5.95-7.45,5.95
					c-4.44,0-7.8-3.21-7.8-7.78c0-4.57,3.37-7.8,7.78-7.8C595.58,746.42,598.29,748.14,599.28,751.2"/>
				<path class="st11" d="M604.54,761.87h-3.06v-12.11h3.06v1.88c0.76-1.25,2.03-2.06,3.71-2.06v3.21h-0.81
					c-1.81,0-2.91,0.7-2.91,3.04V761.87z"/>
				<path class="st11" d="M615.25,762.06c-3.5,0-6.14-2.45-6.14-6.25c0-3.83,2.73-6.25,6.23-6.25c3.5,0,6.23,2.43,6.23,6.25
					C621.57,759.62,618.77,762.06,615.25,762.06 M615.25,759.4c1.62,0,3.17-1.18,3.17-3.58c0-2.43-1.51-3.58-3.12-3.58
					c-1.62,0-3.08,1.16-3.08,3.58C612.21,758.22,613.61,759.4,615.25,759.4"/>
				<path class="st11" d="M634.81,761.87h-3.08v-1.53c-0.76,1.03-2.1,1.68-3.6,1.68c-2.82,0-4.85-1.84-4.85-5.16v-7.1h3.06v6.66
					c0,1.94,1.07,2.99,2.69,2.99c1.66,0,2.71-1.05,2.71-2.99v-6.66h3.08V761.87z"/>
				<path class="st11" d="M644.44,749.56c3.1,0,5.53,2.43,5.53,6.21c0,3.78-2.43,6.29-5.53,6.29c-1.9,0-3.26-0.94-4-1.92v7.5h-3.06
					v-17.88h3.06v1.75C641.17,750.48,642.56,749.56,644.44,749.56 M643.64,752.25c-1.64,0-3.19,1.27-3.19,3.56
					c0,2.3,1.55,3.57,3.19,3.57c1.66,0,3.21-1.31,3.21-3.6C646.85,753.48,645.29,752.25,643.64,752.25"/>
			</g>
		</g>
	</g>
	<rect x="335.18" y="645.67" class="st12" width="94.4" height="2.2"/>
	<rect x="651.14" y="645.67" class="st12" width="94.4" height="2.2"/>
	<g>
		<g>
			<path class="st1" d="M531.49,829.48v-0.06c0,0-0.01-2.74,2.71-4.36l12.19-7.27c0.93-0.62,1.09-1.51,1.09-1.51v0.86v0.57v13.05
				l-7.95,4.62v8.06l14.81-8.73h0V801.5l-6.86-4.03v9.08c-0.04,0.56-0.34,2.67-2.5,4.08L532.64,818c-0.98,0.62-1.15,1.55-1.15,1.55
				v-0.86v-0.57v-12.7l7.93-4.62v-7.99l-14.79,8.65h0v33.22l6.86,3.57V829.48z"/>
		</g>
		<g>
			<path class="st1" d="M568.19,809.44l-6.86-3.94v30.36c-0.02,0.41-0.23,2.77-2.66,4.26l-19.12,11.04l-19.19-11.09
				c-2.59-1.63-2.59-4.28-2.59-4.28v-0.06c0,0,0,0,0,0.01v-30.25l-6.86,3.96v30.34c0.03,0.54,0.3,2.87,2.69,4.3c0,0,0,0,0,0
				l25.95,14.9l25.95-14.92c2.38-1.42,2.67-3.7,2.71-4.25L568.19,809.44z"/>
		</g>
	</g>
	<g>
		<circle class="st2" cx="459.75" cy="526.21" r="4.3"/>
		<circle class="st2" cx="620.25" cy="526.21" r="4.3"/>
	</g>
	<g>
		<g>
			<path class="st2" d="M208.67,587.62v19.74l-9.79,10.76h-37.95v-15.21h3.68v-36.97h-3.68v-15.21h37.95l9.79,10.82v17.19
				l-4.05,4.44L208.67,587.62z M191.83,568.1l-1.99-2.17h-8.39v9.71h8.39l1.99-2.17V568.1z M191.83,592.96l-1.99-2.1h-8.39v12.05
				h8.39l1.99-2.1V592.96z"/>
		</g>
		<g>
			<path class="st2" d="M262.22,550.72v15.21h-3.09l13.46,36.97h3.68v15.21h-23.54v-15.21h1.98l-0.88-2.99h-16.25l-0.95,2.99h1.98
				v15.21h-23.46v-15.21h3.68l13.46-36.97h-2.65v-15.21H262.22z M241.78,586.97h7.8l-3.9-10.68L241.78,586.97z"/>
		</g>
		<g>
			<path class="st2" d="M328.35,576.62h-16.84v-8.52l-1.91-2.17h-8.97l-1.99,2.18v32.7l1.99,2.1h8.97l1.91-2.1v-8.09h16.84v14.64
				l-9.79,10.76h-26.99l-9.78-10.75v-45.83l9.78-10.83h26.99l9.79,10.81V576.62z"/>
		</g>
		<g>
			<path class="st2" d="M355.78,602.91h3.68v15.21h-24.2v-15.21h3.68v-36.97h-3.68v-15.21h24.2v15.21h-3.68v9.55l8.76-9.55h-1.62
				v-15.21h29.12v15.21h-5.07l-16.62,18.28l17.07,18.69h4.63v15.21h-29.12v-15.21h1.69l-5.96-6.47l-2.87,3.24V602.91z"/>
		</g>
		<g>
			<path class="st2" d="M445.08,587.62v19.74l-9.79,10.76h-37.95v-15.21h3.68v-36.97h-3.68v-15.21h37.95l9.79,10.82v17.19
				l-4.05,4.44L445.08,587.62z M428.23,568.1l-1.99-2.17h-8.39v9.71h8.39l1.99-2.17V568.1z M428.23,592.96l-1.99-2.1h-8.39v12.05
				h8.39l1.99-2.1V592.96z"/>
		</g>
		<g>
			<path class="st2" d="M451.55,561.55l9.78-10.83h26.99l9.79,10.83v45.83l-9.79,10.75h-26.99l-9.78-10.75V561.55z M481.27,568.11
				l-1.91-2.18h-8.97l-1.99,2.18v32.7l1.99,2.1h8.97l1.91-2.1V568.11z"/>
		</g>
		<g>
			<path class="st2" d="M542.02,618.12l-16.48-30.18v14.97h3.68v15.21h-24.2v-15.21h3.68v-36.97h-3.68v-15.21h19.93l16.84,30.91
				v-15.7h-3.67v-15.21h24.2v15.21h-3.68v36.97h3.68v15.21H542.02z"/>
		</g>
		<g>
			<path class="st2" d="M589.39,602.91h10.74v-2.67h13.83v17.88h-45.09v-15.21h3.68v-36.97h-3.68v-15.21h45.09v17.8h-13.83v-2.59
				h-10.74v10.84h2.5v-2.59h13.75v20.47h-13.75v-2.67h-2.5V602.91z"/>
		</g>
		<g>
			<path class="st2" d="M691.7,587.62v19.74l-9.79,10.76h-37.95v-15.21h3.68v-36.97h-3.68v-15.21h37.95l9.79,10.82v17.19l-4.05,4.44
				L691.7,587.62z M674.86,568.1l-1.99-2.17h-8.39v9.71h8.39l1.99-2.17V568.1z M674.86,592.96l-1.99-2.1h-8.39v12.05h8.39l1.99-2.1
				V592.96z"/>
		</g>
		<g>
			<path class="st2" d="M722.37,618.12h-24.2v-15.21h3.68v-36.97h-3.68v-15.21h24.2v15.21h-3.68v36.97h3.68V618.12z"/>
		</g>
		<g>
			<path class="st2" d="M780.7,569.9h-13.75v-3.97h-3.68v36.97h3.68v15.21h-24.28v-15.21h3.75v-36.97h-3.75v3.97h-13.75v-19.18
				h51.78V569.9z"/>
		</g>
		<g>
			<path class="st2" d="M822.48,565.94h-1.98v-15.21h25.38v15.21h-5.52l-11.25,36.97h3.16v15.21h-32.58v-15.21h2.65l-11.18-36.97
				h-4.93v-15.21h24.72v15.21h-2.06l6.84,22.49L822.48,565.94z"/>
		</g>
		<g>
			<path class="st2" d="M898.46,550.72v15.21h-3.09l13.46,36.97h3.68v15.21h-23.54v-15.21h1.98l-0.88-2.99h-16.25l-0.95,2.99h1.98
				v15.21h-23.46v-15.21h3.68l13.46-36.97h-2.65v-15.21H898.46z M878.02,586.97h7.8l-3.9-10.68L878.02,586.97z"/>
		</g>
	</g>
	<g>
		<path class="st1" d="M208.67,583.62v19.74l-9.79,10.76h-37.95v-15.21h3.68v-36.97h-3.68v-15.21h37.95l9.79,10.82v17.19l-4.05,4.44
			L208.67,583.62z M191.83,564.1l-1.99-2.17h-8.39v9.71h8.39l1.99-2.17V564.1z M191.83,588.96l-1.99-2.1h-8.39v12.05h8.39l1.99-2.1
			V588.96z"/>
		<path class="st1" d="M262.22,546.72v15.21h-3.09l13.46,36.97h3.68v15.21h-23.54v-15.21h1.98l-0.88-2.99h-16.25l-0.95,2.99h1.98
			v15.21h-23.46v-15.21h3.68l13.46-36.97h-2.65v-15.21H262.22z M241.78,582.97h7.8l-3.9-10.68L241.78,582.97z"/>
		<path class="st1" d="M328.35,572.62h-16.84v-8.52l-1.91-2.17h-8.97l-1.99,2.18v32.7l1.99,2.1h8.97l1.91-2.1v-8.09h16.84v14.64
			l-9.79,10.76h-26.99l-9.78-10.75v-45.83l9.78-10.83h26.99l9.79,10.81V572.62z"/>
		<path class="st1" d="M355.78,598.91h3.68v15.21h-24.2v-15.21h3.68v-36.97h-3.68v-15.21h24.2v15.21h-3.68v9.55l8.76-9.55h-1.62
			v-15.21h29.12v15.21h-5.07l-16.62,18.28l17.07,18.69h4.63v15.21h-29.12v-15.21h1.69l-5.96-6.47l-2.87,3.24V598.91z"/>
		<path class="st1" d="M445.08,583.62v19.74l-9.79,10.76h-37.95v-15.21h3.68v-36.97h-3.68v-15.21h37.95l9.79,10.82v17.19l-4.05,4.44
			L445.08,583.62z M428.23,564.1l-1.99-2.17h-8.39v9.71h8.39l1.99-2.17V564.1z M428.23,588.96l-1.99-2.1h-8.39v12.05h8.39l1.99-2.1
			V588.96z"/>
		<path class="st1" d="M451.55,557.55l9.78-10.83h26.99l9.79,10.83v45.83l-9.79,10.75h-26.99l-9.78-10.75V557.55z M481.27,564.11
			l-1.91-2.18h-8.97l-1.99,2.18v32.7l1.99,2.1h8.97l1.91-2.1V564.11z"/>
		<path class="st1" d="M542.02,614.12l-16.48-30.18v14.97h3.68v15.21h-24.2v-15.21h3.68v-36.97h-3.68v-15.21h19.93l16.84,30.91
			v-15.7h-3.67v-15.21h24.2v15.21h-3.68v36.97h3.68v15.21H542.02z"/>
		<path class="st1" d="M589.39,598.91h10.74v-2.67h13.83v17.88h-45.09v-15.21h3.68v-36.97h-3.68v-15.21h45.09v17.8h-13.83v-2.59
			h-10.74v10.84h2.5v-2.59h13.75v20.47h-13.75v-2.67h-2.5V598.91z"/>
		<path class="st1" d="M691.7,583.62v19.74l-9.79,10.76h-37.95v-15.21h3.68v-36.97h-3.68v-15.21h37.95l9.79,10.82v17.19l-4.05,4.44
			L691.7,583.62z M674.86,564.1l-1.99-2.17h-8.39v9.71h8.39l1.99-2.17V564.1z M674.86,588.96l-1.99-2.1h-8.39v12.05h8.39l1.99-2.1
			V588.96z"/>
		<path class="st1" d="M722.37,614.12h-24.2v-15.21h3.68v-36.97h-3.68v-15.21h24.2v15.21h-3.68v36.97h3.68V614.12z"/>
		<path class="st1" d="M780.7,565.9h-13.75v-3.97h-3.68v36.97h3.68v15.21h-24.28v-15.21h3.75v-36.97h-3.75v3.97h-13.75v-19.18h51.78
			V565.9z"/>
		<path class="st1" d="M822.48,561.94h-1.98v-15.21h25.38v15.21h-5.52l-11.25,36.97h3.16v15.21h-32.58v-15.21h2.65l-11.18-36.97
			h-4.93v-15.21h24.72v15.21h-2.06l6.84,22.49L822.48,561.94z"/>
		<path class="st1" d="M898.46,546.72v15.21h-3.09l13.46,36.97h3.68v15.21h-23.54v-15.21h1.98l-0.88-2.99h-16.25l-0.95,2.99h1.98
			v15.21h-23.46v-15.21h3.68l13.46-36.97h-2.65v-15.21H898.46z M878.02,582.97h7.8l-3.9-10.68L878.02,582.97z"/>
	</g>
	<defs>
		<filter id="Adobe_OpacityMaskFilter_1_" filterUnits="userSpaceOnUse" x="160.94" y="546.72" width="751.58" height="67.4">
			<feColorMatrix  type="matrix" values="1 0 0 0 0  0 1 0 0 0  0 0 1 0 0  0 0 0 1 0"/>
		</filter>
	</defs>
	<mask maskUnits="userSpaceOnUse" x="160.94" y="546.72" width="751.58" height="67.4" id="SVGID_6_">
		<g class="st13">
			<rect x="149.28" y="580.17" class="st1" width="787" height="54"/>
		</g>
	</mask>
	<g class="st14">
		<g>
			<path class="st15" d="M162.94,612.12v-11.21h3.68v-40.97h-3.68v-11.21H198l8.67,9.59v15.64l-4.75,5.21l4.75,5.23v18.19
				l-8.67,9.54H162.94z M179.46,600.91h11.25l3.13-3.3v-9.44l-3.13-3.3h-11.25V600.91z M179.46,573.65h11.26l3.11-3.39v-6.94
				l-3.11-3.39h-11.26V573.65z"/>
			<path class="st1" d="M197.11,550.72l7.56,8.36v14.1l-3,3.29l-2.46,2.69l2.45,2.7l3.01,3.31v16.65l-7.56,8.31h-32.18v-7.21h3.68
				v-4v-36.97v-4h-3.68v-7.21H197.11 M177.46,575.65h4h8.39h1.76l1.19-1.29l1.99-2.17l1.05-1.15v-1.56v-5.38v-1.56l-1.05-1.15
				l-1.99-2.17l-1.19-1.29h-1.76h-8.39h-4v4v9.71V575.65 M177.46,602.91h4h8.39h1.72l1.18-1.25l1.99-2.1l1.1-1.16v-1.59v-7.85v-1.59
				l-1.1-1.16l-1.99-2.1l-1.18-1.25h-1.72h-8.39h-4v4v12.05V602.91 M198.89,546.72h-37.95v15.21h3.68v36.97h-3.68v15.21h37.95
				l9.79-10.76v-19.74l-4.05-4.45l4.05-4.44v-17.19L198.89,546.72L198.89,546.72z M181.46,571.65v-9.71h8.39l1.99,2.17v5.38
				l-1.99,2.17H181.46L181.46,571.65z M181.46,598.91v-12.05h8.39l1.99,2.1v7.85l-1.99,2.1H181.46L181.46,598.91z"/>
		</g>
		<g>
			<path class="st15" d="M254.73,612.12v-11.21h2.66l-2.06-6.99h-19.21l-2.23,6.99h2.72v11.21h-19.46v-11.21h3.08l14.92-40.97h-3.5
				v-11.21h28.58v11.21h-3.95l14.92,40.97h3.08v11.21H254.73z M238.92,584.97h13.51l-6.76-18.51L238.92,584.97z"/>
			<path class="st1" d="M258.22,550.72v7.21h-4.8l1.95,5.37l13.46,36.97l0.96,2.63h2.48v7.21h-15.54v-7.21h3.33l-1.51-5.13
				l-0.88-2.99l-0.85-2.87h-2.99h-16.25h-2.92l-0.89,2.79l-0.95,2.99l-1.66,5.22h3.46v7.21h-15.46v-7.21h2.48l0.96-2.63l13.46-36.97
				l1.95-5.37h-4.36v-7.21H258.22 M236.06,586.97h5.72h7.8h5.72l-1.96-5.37l-3.9-10.68l-3.76-10.29l-3.75,10.29l-3.9,10.68
				L236.06,586.97 M262.22,546.72h-32.58v15.21h2.65l-13.46,36.97h-3.68v15.21h23.46v-15.21h-1.98l0.95-2.99h16.25l0.88,2.99h-1.98
				v15.21h23.54v-15.21h-3.68l-13.46-36.97h3.09V546.72L262.22,546.72z M241.78,582.97l3.9-10.68l3.9,10.68H241.78L241.78,582.97z"
				/>
		</g>
		<g>
			<polygon class="st15" points="292.45,612.12 283.79,602.6 283.79,558.32 292.46,548.72 317.67,548.72 326.35,558.31 
				326.35,570.62 313.51,570.62 313.51,563.35 310.5,559.94 299.74,559.94 296.63,563.34 296.63,597.61 299.76,600.91 
				310.48,600.91 313.51,597.58 313.51,590.72 326.35,590.72 326.35,602.59 317.68,612.12 			"/>
			<path class="st1" d="M316.79,550.72l7.56,8.35v9.54h-8.84v-4.52v-1.51l-1-1.13l-1.91-2.17l-1.19-1.35h-1.8h-8.97h-1.76l-1.19,1.3
				l-1.99,2.18l-1.05,1.15v1.55v32.7v1.6l1.1,1.16l1.99,2.1l1.18,1.25h1.72h8.97h1.77l1.19-1.31l1.91-2.1l1.04-1.14v-1.55v-4.09
				h8.84v9.1l-7.56,8.31h-23.46l-7.55-8.29v-42.74l7.56-8.37H316.79 M318.56,546.72h-26.99l-9.78,10.83v45.83l9.78,10.75h26.99
				l9.79-10.76v-14.64h-16.84v8.09l-1.91,2.1h-8.97l-1.99-2.1v-32.7l1.99-2.18h8.97l1.91,2.17v8.52h16.84v-15.08L318.56,546.72
				L318.56,546.72z"/>
		</g>
		<g>
			<polygon class="st15" points="364.92,612.12 364.92,600.91 369.16,600.91 358.62,589.45 353.78,594.92 353.78,600.91 
				357.46,600.91 357.46,612.12 337.26,612.12 337.26,600.91 340.94,600.91 340.94,559.94 337.26,559.94 337.26,548.72 
				357.46,548.72 357.46,559.94 353.78,559.94 353.78,576.62 369.08,559.94 364.92,559.94 364.92,548.72 390.04,548.72 
				390.04,559.94 386.08,559.94 367.64,580.22 386.53,600.91 390.04,600.91 390.04,612.12 			"/>
			<path class="st1" d="M388.04,550.72v7.21h-1.07h-1.77l-1.19,1.31l-16.62,18.28l-2.45,2.7l2.46,2.69l17.07,18.69l1.19,1.3h1.76
				h0.63v7.21h-21.12v-7.21h6.8l-6.17-6.71l-5.96-6.47l-3-3.26l-2.94,3.31l-2.87,3.24l-1.01,1.14v1.52v3.24v4h3.68v7.21h-16.2v-7.21
				h3.68v-4v-36.97v-4h-3.68v-7.21h16.2v7.21h-3.68v4v9.55v10.28l6.95-7.57l8.76-9.55l6.15-6.7h-6.72v-7.21H388.04 M392.04,546.72
				h-29.12v15.21h1.62l-8.76,9.55v-9.55h3.68v-15.21h-24.2v15.21h3.68v36.97h-3.68v15.21h24.2v-15.21h-3.68v-3.24l2.87-3.24
				l5.96,6.47h-1.69v15.21h29.12v-15.21h-4.63l-17.07-18.69l16.62-18.28h5.07V546.72L392.04,546.72z"/>
		</g>
		<g>
			<path class="st15" d="M399.34,612.12v-11.21h3.68v-40.97h-3.68v-11.21h35.06l8.67,9.59v15.64l-4.75,5.21l4.75,5.23v18.19
				l-8.67,9.54H399.34z M415.86,600.91h11.25l3.13-3.3v-9.44l-3.13-3.3h-11.25V600.91z M415.86,573.65h11.26l3.11-3.39v-6.94
				l-3.11-3.39h-11.26V573.65z"/>
			<path class="st1" d="M433.51,550.72l7.56,8.36v14.1l-3,3.29l-2.46,2.69l2.45,2.7l3.01,3.31v16.65l-7.56,8.31h-32.18v-7.21h3.68
				v-4v-36.97v-4h-3.68v-7.21H433.51 M413.86,575.65h4h8.39H428l1.19-1.29l1.99-2.17l1.05-1.15v-1.56v-5.38v-1.56l-1.05-1.15
				l-1.99-2.17l-1.19-1.29h-1.76h-8.39h-4v4v9.71V575.65 M413.86,602.91h4h8.39h1.72l1.18-1.25l1.99-2.1l1.1-1.16v-1.59v-7.85v-1.59
				l-1.1-1.16l-1.99-2.1l-1.18-1.25h-1.72h-8.39h-4v4v12.05V602.91 M435.29,546.72h-37.95v15.21h3.68v36.97h-3.68v15.21h37.95
				l9.79-10.76v-19.74l-4.05-4.45l4.05-4.44v-17.19L435.29,546.72L435.29,546.72z M417.86,571.65v-9.71h8.39l1.99,2.17v5.38
				l-1.99,2.17H417.86L417.86,571.65z M417.86,598.91v-12.05h8.39l1.99,2.1v7.85l-1.99,2.1H417.86L417.86,598.91z"/>
		</g>
		<g>
			<path class="st15" d="M462.21,612.12l-8.66-9.52v-44.28l8.67-9.6h25.22l8.67,9.6v44.28l-8.67,9.52H462.21z M466.39,563.34v34.28
				l3.13,3.3h10.71l3.03-3.32v-34.23l-3.01-3.42H469.5L466.39,563.34z"/>
			<path class="st1" d="M486.55,550.72l7.56,8.37v42.74l-7.55,8.29H463.1l-7.55-8.29v-42.74l7.56-8.37H486.55 M468.66,602.91h1.72
				h8.97h1.76l1.19-1.3l1.91-2.1l1.05-1.15v-1.55v-32.7v-1.51l-0.99-1.13l-1.91-2.18l-1.19-1.36h-1.81h-8.97h-1.76l-1.19,1.3
				l-1.99,2.18l-1.05,1.15v1.55v32.7v1.6l1.1,1.16l1.99,2.1L468.66,602.91 M488.32,546.72h-26.99l-9.78,10.83v45.83l9.78,10.75
				h26.99l9.79-10.75v-45.83L488.32,546.72L488.32,546.72z M470.38,598.91l-1.99-2.1v-32.7l1.99-2.18h8.97l1.91,2.18v32.7l-1.91,2.1
				H470.38L470.38,598.91z"/>
		</g>
		<g>
			<polygon class="st15" points="543.2,612.12 523.54,576.11 523.54,600.91 527.22,600.91 527.22,612.12 507.02,612.12 
				507.02,600.91 510.7,600.91 510.7,559.94 507.02,559.94 507.02,548.72 523.76,548.72 543.79,585.48 543.79,559.94 540.12,559.94 
				540.12,548.72 560.32,548.72 560.32,559.94 556.64,559.94 556.64,600.91 560.32,600.91 560.32,612.12 			"/>
			<path class="st1" d="M558.32,550.72v7.21h-3.68v4v36.97v4h3.68v7.21h-13.93l-15.34-28.09l-7.51-13.76v15.67v14.97v4h3.68v7.21
				h-16.2v-7.21h3.68v-4v-36.97v-4h-3.68v-7.21h13.56l15.71,28.82l7.51,13.79v-15.7v-15.7v-4h-3.67v-7.21H558.32 M562.32,546.72
				h-24.2v15.21h3.67v15.7l-16.84-30.91h-19.93v15.21h3.68v36.97h-3.68v15.21h24.2v-15.21h-3.68v-14.97l16.48,30.18h20.3v-15.21
				h-3.68v-36.97h3.68V546.72L562.32,546.72z"/>
		</g>
		<g>
			<polygon class="st15" points="570.87,612.12 570.87,600.91 574.54,600.91 574.54,559.94 570.87,559.94 570.87,548.72 
				611.96,548.72 611.96,562.53 602.13,562.53 602.13,559.94 587.39,559.94 587.39,574.78 593.89,574.78 593.89,572.19 
				603.64,572.19 603.64,588.66 593.89,588.66 593.89,585.99 587.39,585.99 587.39,600.91 602.13,600.91 602.13,598.25 
				611.96,598.25 611.96,612.12 			"/>
			<path class="st1" d="M609.96,550.72v9.8h-5.83v-2.59h-4h-10.74h-4v4v10.84v4h4h2.5h4v-2.59h5.75v12.47h-5.75v-2.67h-4h-2.5h-4v4
				v10.92v4h4h10.74h4v-2.67h5.83v9.88h-37.09v-7.21h3.68v-4v-36.97v-4h-3.68v-7.21H609.96 M613.96,546.72h-45.09v15.21h3.68v36.97
				h-3.68v15.21h45.09v-17.88h-13.83v2.67h-10.74v-10.92h2.5v2.67h13.75v-20.47h-13.75v2.59h-2.5v-10.84h10.74v2.59h13.83V546.72
				L613.96,546.72z"/>
		</g>
		<g>
			<path class="st15" d="M645.96,612.12v-11.21h3.68v-40.97h-3.68v-11.21h35.06l8.67,9.59v15.64l-4.75,5.21l4.75,5.23v18.19
				l-8.67,9.54H645.96z M662.48,600.91h11.25l3.13-3.3v-9.44l-3.13-3.3h-11.25V600.91z M662.48,573.65h11.27l3.11-3.39v-6.94
				l-3.11-3.39h-11.27V573.65z"/>
			<path class="st1" d="M680.14,550.72l7.56,8.36v14.1l-3,3.29l-2.46,2.69l2.45,2.7l3.01,3.31v16.65l-7.56,8.31h-32.18v-7.21h3.68
				v-4v-36.97v-4h-3.68v-7.21H680.14 M660.48,575.65h4h8.39h1.76l1.19-1.29l1.99-2.17l1.05-1.15v-1.56v-5.38v-1.56l-1.05-1.15
				l-1.99-2.17l-1.19-1.29h-1.76h-8.39h-4v4v9.71V575.65 M660.48,602.91h4h8.39h1.72l1.18-1.25l1.99-2.1l1.1-1.16v-1.59v-7.85v-1.59
				l-1.1-1.16l-1.99-2.1l-1.18-1.25h-1.72h-8.39h-4v4v12.05V602.91 M681.91,546.72h-37.95v15.21h3.68v36.97h-3.68v15.21h37.95
				l9.79-10.76v-19.74l-4.05-4.45l4.05-4.44v-17.19L681.91,546.72L681.91,546.72z M664.48,571.65v-9.71h8.39l1.99,2.17v5.38
				l-1.99,2.17H664.48L664.48,571.65z M664.48,598.91v-12.05h8.39l1.99,2.1v7.85l-1.99,2.1H664.48L664.48,598.91z"/>
		</g>
		<g>
			<polygon class="st15" points="700.17,612.12 700.17,600.91 703.85,600.91 703.85,559.94 700.17,559.94 700.17,548.72 
				720.37,548.72 720.37,559.94 716.69,559.94 716.69,600.91 720.37,600.91 720.37,612.12 			"/>
			<path class="st1" d="M718.37,550.72v7.21h-3.68v4v36.97v4h3.68v7.21h-16.2v-7.21h3.68v-4v-36.97v-4h-3.68v-7.21H718.37
				 M722.37,546.72h-24.2v15.21h3.68v36.97h-3.68v15.21h24.2v-15.21h-3.68v-36.97h3.68V546.72L722.37,546.72z"/>
		</g>
		<g>
			<polygon class="st15" points="744.68,612.12 744.68,600.91 748.43,600.91 748.43,559.94 740.68,559.94 740.68,563.9 
				730.92,563.9 730.92,548.72 778.7,548.72 778.7,563.9 768.95,563.9 768.95,559.94 761.27,559.94 761.27,600.91 764.95,600.91 
				764.95,612.12 			"/>
			<path class="st1" d="M776.7,550.72v11.18h-5.75v-3.97h-4h-3.68h-4v4v36.97v4h3.68v7.21h-16.27v-7.21h3.75v-4v-36.97v-4h-4h-3.75
				h-4v3.97h-5.75v-11.18H776.7 M780.7,546.72h-51.78v19.18h13.75v-3.97h3.75v36.97h-3.75v15.21h24.27v-15.21h-3.68v-36.97h3.68
				v3.97h13.75V546.72L780.7,546.72z"/>
		</g>
		<g>
			<polygon class="st15" points="801.68,612.12 801.68,600.91 805.02,600.91 792.63,559.94 788.22,559.94 788.22,548.72 
				808.93,548.72 808.93,559.94 806.18,559.94 815.72,591.34 825.17,559.94 822.5,559.94 822.5,548.72 843.87,548.72 843.87,559.94 
				838.87,559.94 826.4,600.91 830.26,600.91 830.26,612.12 			"/>
			<path class="st1" d="M841.87,550.72v7.21h-1.52h-2.96l-0.86,2.84l-11.25,36.97l-1.57,5.16h4.56v7.21h-24.58v-7.21h4.04
				l-1.56-5.16l-11.18-36.97l-0.86-2.84h-2.97h-0.93v-7.21h16.72v7.21h-3.46l1.57,5.16l6.84,22.49l3.85,12.65l3.81-12.66l6.77-22.49
				l1.55-5.15h-3.36v-7.21H841.87 M845.87,546.72H820.5v15.21h1.98l-6.77,22.49l-6.84-22.49h2.06v-15.21h-24.72v15.21h4.93
				l11.18,36.97h-2.65v15.21h32.58v-15.21h-3.16l11.25-36.97h5.52V546.72L845.87,546.72z"/>
		</g>
		<g>
			<path class="st15" d="M890.97,612.12v-11.21h2.66l-2.06-6.99h-19.21l-2.23,6.99h2.72v11.21h-19.46v-11.21h3.08l14.92-40.97h-3.5
				v-11.21h28.58v11.21h-3.95l14.92,40.97h3.08v11.21H890.97z M875.16,584.97h13.52l-6.76-18.51L875.16,584.97z"/>
			<path class="st1" d="M894.46,550.72v7.21h-4.8l1.96,5.37l13.47,36.97l0.96,2.63h2.48v7.21h-15.54v-7.21h3.34l-1.52-5.13
				l-0.88-2.99l-0.85-2.87h-2.99h-16.25h-2.92l-0.89,2.78l-0.95,2.99l-1.66,5.22h3.46v7.21h-15.46v-7.21h2.48l0.96-2.63l13.46-36.97
				l1.95-5.37h-4.36v-7.21H894.46 M872.3,586.97h5.72h7.8h5.72l-1.96-5.37l-3.9-10.68l-3.76-10.29l-3.76,10.3l-3.9,10.68
				L872.3,586.97 M898.46,546.72h-32.58v15.21h2.65l-13.46,36.97h-3.68v15.21h23.46v-15.21h-1.98l0.95-2.99h16.25l0.88,2.99h-1.98
				v15.21h23.54v-15.21h-3.68l-13.46-36.97h3.09V546.72L898.46,546.72z M878.02,582.97l3.9-10.68l3.9,10.68H878.02L878.02,582.97z"
				/>
		</g>
	</g>
	<g>
		<path class="st2" d="M483.98,515.69v21.46h-2.35v-19.42h-2.35v-2.04H483.98z"/>
		<path class="st2" d="M494.71,515.69v21.46h-2.35v-19.42h-2.35v-2.04H494.71z"/>
		<path class="st2" d="M501.09,537.15v-3.86h2.83v3.86H501.09z"/>
		<path class="st2" d="M519.72,518.8v3.52h-2.35v-3.9c0-1.82,0.91-2.73,2.72-2.73h2.9c1.82,0,2.72,0.91,2.72,2.73v6.17
			c0,1.04-0.43,1.59-1.28,1.66c0.85,0.14,1.28,0.68,1.28,1.62v6.55c0,1.82-0.91,2.73-2.72,2.73h-2.9c-1.82,0-2.72-0.91-2.72-2.73
			v-3.86h2.35v3.48c0,0.46,0.07,0.75,0.21,0.88c0.14,0.13,0.42,0.19,0.86,0.19h1.52c0.44,0,0.72-0.06,0.86-0.19
			c0.14-0.13,0.21-0.42,0.21-0.88v-5.66c0-0.46-0.07-0.75-0.21-0.88c-0.14-0.13-0.43-0.19-0.86-0.19h-2.52v-2.07h2.52
			c0.44,0,0.72-0.06,0.86-0.19c0.14-0.13,0.21-0.42,0.21-0.88v-5.38c0-0.46-0.07-0.75-0.21-0.88c-0.14-0.13-0.43-0.19-0.86-0.19
			h-1.52c-0.44,0-0.72,0.06-0.86,0.19C519.79,518.04,519.72,518.34,519.72,518.8z"/>
		<path class="st2" d="M531.93,537.15v-3.86h2.83v3.86H531.93z"/>
		<path class="st2" d="M550.38,518.8v3.79h-2.35v-4.17c0-1.82,0.91-2.73,2.73-2.73h2.66c1.82,0,2.73,0.91,2.73,2.73v1.9
			c0,1.59-0.3,3.08-0.9,4.48l-4.73,10.31h5.79v2.04h-8.25v-2l4.9-10.73c0.53-1.24,0.79-2.66,0.79-4.24v-1.38
			c0-0.46-0.06-0.75-0.19-0.88c-0.13-0.13-0.42-0.19-0.88-0.19h-1.24c-0.46,0-0.75,0.06-0.88,0.19
			C550.45,518.04,550.38,518.34,550.38,518.8z"/>
		<path class="st2" d="M571.36,518.42v16.01c0,1.82-0.91,2.73-2.73,2.73h-3.55c-1.82,0-2.73-0.91-2.73-2.73v-16.01
			c0-1.82,0.91-2.73,2.73-2.73h3.55C570.45,515.69,571.36,516.6,571.36,518.42z M568.98,534.04V518.8c0-0.46-0.07-0.75-0.21-0.88
			c-0.14-0.13-0.43-0.19-0.86-0.19h-2.1c-0.46,0-0.75,0.06-0.88,0.19c-0.13,0.13-0.19,0.42-0.19,0.88v15.25
			c0,0.46,0.06,0.75,0.19,0.88c0.13,0.13,0.42,0.19,0.88,0.19h2.1c0.44,0,0.72-0.06,0.86-0.19
			C568.91,534.8,568.98,534.5,568.98,534.04z"/>
		<path class="st2" d="M579.74,518.8v3.79h-2.35v-4.17c0-1.82,0.91-2.73,2.73-2.73h2.66c1.82,0,2.73,0.91,2.73,2.73v1.9
			c0,1.59-0.3,3.08-0.9,4.48l-4.73,10.31h5.79v2.04h-8.25v-2l4.9-10.73c0.53-1.24,0.79-2.66,0.79-4.24v-1.38
			c0-0.46-0.06-0.75-0.19-0.88c-0.13-0.13-0.42-0.19-0.88-0.19h-1.24c-0.46,0-0.75,0.06-0.88,0.19
			C579.8,518.04,579.74,518.34,579.74,518.8z"/>
		<path class="st2" d="M600.71,518.42v16.01c0,1.82-0.91,2.73-2.73,2.73h-3.55c-1.82,0-2.73-0.91-2.73-2.73v-16.01
			c0-1.82,0.91-2.73,2.73-2.73h3.55C599.81,515.69,600.71,516.6,600.71,518.42z M598.33,534.04V518.8c0-0.46-0.07-0.75-0.21-0.88
			c-0.14-0.13-0.43-0.19-0.86-0.19h-2.1c-0.46,0-0.75,0.06-0.88,0.19c-0.13,0.13-0.19,0.42-0.19,0.88v15.25
			c0,0.46,0.06,0.75,0.19,0.88c0.13,0.13,0.42,0.19,0.88,0.19h2.1c0.44,0,0.72-0.06,0.86-0.19
			C598.26,534.8,598.33,534.5,598.33,534.04z"/>
	</g>
</g>
</svg>
